<svg width="24" height="24" viewBox="0 0 24 24" fill="none" xmlns="http://www.w3.org/2000/svg">
<path d="M20.75 9.59917C20.75 13.8364 17.2325 16.094 14.6583 18.1155C13.75 18.8282 12.875 19.5 12 19.5C12 19.5 12 18.181 12 17.306C12 16.431 12 15.7364 12 11.5C12 7.26363 12 6.43105 12 6.43105C15.9375 2.35674 20.75 5.36193 20.75 9.59917Z" fill="#D0ABFD"/>
<path d="M3.25 9.59917C3.25 13.8364 6.7675 16.094 9.34175 18.1155C10.25 18.8282 11.125 19.5 12 19.5C12 19.5 12 18.181 12 17.306C12 16.431 12 17.1364 12 12.9C12 8.66363 12 6.43105 12 6.43105C8.0625 2.35674 3.25 5.36193 3.25 9.59917Z" fill="#F6EFFF"/>
<path d="M15.1492 11.85C15.1492 13.0098 14.209 13.95 13.0492 13.95C11.8894 13.95 10.9492 13.0098 10.9492 11.85C10.9492 10.6902 11.8894 9.75 13.0492 9.75C14.209 9.75 15.1492 10.6902 15.1492 11.85Z" fill="#F6EFFF"/>
</svg>
