<svg width="60" height="60" viewBox="0 0 60 60" fill="none" xmlns="http://www.w3.org/2000/svg">
<path d="M51.9998 33.3683C51.9998 33.3683 51.9998 31.2252 51.9998 31.2252C51.9998 30.9087 51.9998 30.5067 51.9998 30.0002C51.9998 29.2816 51.9998 28.7658 51.9998 28.4012C51.9998 28.401 52.0001 26.7994 52.0001 26.7993C52 26.1791 51.9998 26.1535 52 25.4283L52 13.0002C52 12.4479 51.5523 12.0002 51 12.0002L42.5026 12.0002C41.6552 12.0002 41.1363 13.0496 41.3866 13.8592C41.5357 14.3414 41.6153 14.8497 41.6153 15.3748C41.6153 18.4814 38.8257 20.9998 35.3846 20.9998C31.9434 20.9998 29.1538 18.4814 29.1538 15.3748C29.1538 14.8497 29.2335 14.3414 29.3826 13.8592C29.6329 13.0496 29.114 12.0002 28.2665 12.0002L19.7692 12.0002C19.2169 12.0002 18.7692 12.4479 18.7692 13.0002L18.7692 24.8052C18.7692 25.1866 18.5514 25.5823 18.1701 25.5772C17.7601 25.5718 17.4148 25.3322 17.0721 25.0084C16.8859 24.788 16.6874 24.5849 16.4779 24.4012C16.4476 24.3698 16.4169 24.3385 16.3861 24.3073C16.3838 24.305 16.3799 24.3056 16.3785 24.3085C16.3772 24.3112 16.3736 24.312 16.3713 24.31C15.5645 23.6391 14.6056 23.2502 13.5769 23.2502C10.7093 23.2502 8.38459 26.2722 8.38459 30.0002C8.38459 33.7281 10.7093 36.7502 13.5769 36.7502C14.6056 36.7502 15.5645 36.3612 16.3713 35.6903C16.3736 35.6883 16.3772 35.6891 16.3785 35.6918C16.3799 35.6947 16.3838 35.6953 16.3861 35.693C16.4169 35.6618 16.4476 35.6305 16.4779 35.5991C16.6873 35.4154 16.8859 35.2123 17.0721 34.9919C17.4148 34.6681 17.7601 34.4285 18.1701 34.4231C18.5514 34.418 18.7692 34.8137 18.7692 35.1951L18.7692 47.0002C18.7692 47.5524 19.2169 48.0002 19.7692 48.0002L28.2667 48.0002C29.1142 48.0002 29.6331 46.9505 29.3827 46.1408C29.2336 45.6585 29.1538 45.1501 29.1538 44.6248C29.1538 41.5182 31.9434 38.9998 35.3846 38.9998C38.8257 38.9998 41.6153 41.5182 41.6153 44.6248C41.6153 45.1501 41.5356 45.6585 41.3864 46.1408C41.136 46.9505 41.655 48.0002 42.5025 48.0002L51 48.0002C51.5523 48.0002 52 47.5586 52 47.0064C52 43.9788 52 35.0465 52 34.572C51.9999 34.0002 51.9998 33.3683 51.9998 33.3683Z" fill="url(#paint0_linear_682_7878)"/>
<defs>
<linearGradient id="paint0_linear_682_7878" x1="62.3873" y1="12.4" x2="8.38733" y2="46.6003" gradientUnits="userSpaceOnUse">
<stop stop-color="#C4B9FF"/>
<stop offset="1" stop-color="#7B42FF"/>
</linearGradient>
</defs>
</svg>
