<svg width="60" height="60" viewBox="0 0 60 60" fill="none" xmlns="http://www.w3.org/2000/svg">
<g id="illust-Puzzle/illust-Puzzle-01">
<path id="Union" d="M8 19.0573C8 18.4819 8.48434 18.0285 9.05872 18.0623L21.0307 18.7665C19.2 17.5039 18.0001 15.3921 18.0001 13C18.0001 9.13401 21.1341 6 25.0001 6C28.8661 6 32.0001 9.13401 32.0001 13C32.0001 15.3921 30.8003 17.5039 28.9696 18.7665L40.8728 18.0663C41.472 18.0311 41.967 18.5279 41.9296 19.127L41.1807 31.1082C42.4367 29.2338 44.5743 28 47 28C50.866 28 54 31.134 54 35C54 38.866 50.866 42 47 42C44.5743 42 42.4367 40.7662 41.1807 38.8918L41.9336 50.9376C41.9696 51.5133 41.5124 52 40.9356 52H9C8.44772 52 8 51.5524 8 51.0001L8 19.0573Z" fill="url(#paint0_linear_2784_20096)"/>
</g>
<defs>
<linearGradient id="paint0_linear_2784_20096" x1="0.972222" y1="55.8333" x2="13.7022" y2="-7.28821" gradientUnits="userSpaceOnUse">
<stop stop-color="#6F00FB"/>
<stop offset="1" stop-color="#D0ABFD"/>
</linearGradient>
</defs>
</svg>
