<svg width="40" height="40" viewBox="0 0 40 40" fill="none" xmlns="http://www.w3.org/2000/svg">
<path fill-rule="evenodd" clip-rule="evenodd" d="M37.5 20C37.5 29.665 29.665 37.5 20 37.5C10.335 37.5 2.5 29.665 2.5 20C2.5 10.335 10.335 2.5 20 2.5C29.665 2.5 37.5 10.335 37.5 20ZM18.3333 12.5007C18.3333 11.5802 19.0794 10.834 19.9999 10.834C20.9204 10.834 21.6666 11.5802 21.6666 12.5007V20.834C21.6666 21.7545 20.9204 22.5007 19.9999 22.5007C19.0794 22.5007 18.3333 21.7545 18.3333 20.834V12.5007ZM20 25.0586C18.8494 25.0586 17.9167 25.9913 17.9167 27.1419C17.9167 28.2925 18.8494 29.2253 20 29.2253C21.1506 29.2253 22.0833 28.2925 22.0833 27.1419C22.0833 25.9913 21.1506 25.0586 20 25.0586Z" fill="#1B1A2A"/>
</svg>
