<svg width="60" height="60" viewBox="0 0 60 60" fill="none" xmlns="http://www.w3.org/2000/svg">
<g id="illust-Puzzle/illust-Puzzle-06">
<path id="Union" d="M18.9405 34.961C17.6746 36.2211 15.9292 37 14.002 37C10.136 37 7.00195 33.866 7.00195 30C7.00195 26.134 10.136 23 14.002 23C15.9292 23 17.6746 23.7789 18.9405 25.039C18.7258 20.2714 18.2977 15.2556 18.1019 13.0952C18.0486 12.507 18.5115 12 19.1022 12H27.6518C28.5476 12 29.0693 13.1734 28.6826 13.9814C28.2451 14.8954 28.0001 15.9191 28.0001 17C28.0001 20.866 31.1341 24 35.0001 24C38.8661 24 42.0001 20.866 42.0001 17C42.0001 15.9191 41.7551 14.8954 41.3176 13.9814C40.9308 13.1734 41.4525 12 42.3483 12H51.1946C51.7469 12 52.1946 12.444 52.1946 12.9963V47.0037C52.1946 47.556 51.7469 48 51.1946 48H42.3483C41.4525 48 40.9308 46.8266 41.3176 46.0186C41.7551 45.1046 42.0001 44.0809 42.0001 43C42.0001 39.134 38.8661 36 35.0001 36C31.1341 36 28.0001 39.134 28.0001 43C28.0001 44.0809 28.2451 45.1046 28.6826 46.0186C29.0693 46.8266 28.5476 48 27.6518 48H19.1022C18.5115 48 18.0486 47.493 18.1019 46.9048C18.2977 44.7444 18.7258 39.7286 18.9405 34.961Z" fill="url(#paint0_linear_2784_20090)"/>
</g>
<defs>
<linearGradient id="paint0_linear_2784_20090" x1="0.0975189" y1="51" x2="8.1486" y2="0.884756" gradientUnits="userSpaceOnUse">
<stop stop-color="#6F00FB"/>
<stop offset="1" stop-color="#D0ABFD"/>
</linearGradient>
</defs>
</svg>
