<svg width="24" height="24" viewBox="0 0 24 24" fill="none" xmlns="http://www.w3.org/2000/svg">
<path d="M6.73598 13.6231C6.30914 14.0188 5.72674 14.2624 5.08473 14.2624C3.77561 14.2624 2.71436 13.2494 2.71436 11.9998C2.71436 10.7502 3.77561 9.7372 5.08473 9.7372C5.72674 9.7372 6.30914 9.98083 6.73598 10.3765C6.66762 8.83998 6.53267 7.22802 6.47096 6.53373C6.45413 6.3443 6.61057 6.18164 6.80974 6.18164H9.26304C9.53674 6.18164 9.70776 6.48494 9.61794 6.73173C9.53325 6.96441 9.48723 7.21436 9.48723 7.47457C9.48723 8.72418 10.5485 9.7372 11.8576 9.7372C13.1667 9.7372 14.228 8.72418 14.228 7.47457C14.228 7.21436 14.182 6.96441 14.0973 6.73173C14.0074 6.48494 14.1785 6.18164 14.4522 6.18164H16.9039C17.103 6.18164 17.2595 6.3443 17.2426 6.53373C17.1809 7.22815 17.0459 8.84054 16.9776 10.3773C17.4045 9.98116 17.9873 9.7372 18.6297 9.7372C19.9388 9.7372 21.0001 10.7502 21.0001 11.9998C21.0001 13.2494 19.9388 14.2624 18.6297 14.2624C17.9873 14.2624 17.4045 14.0185 16.9776 13.6223C17.0459 15.1591 17.1809 16.7715 17.2426 17.4659C17.2595 17.6553 17.103 17.818 16.9039 17.818H14.4522C14.1785 17.818 14.0074 17.5147 14.0973 17.2679C14.182 17.0352 14.228 16.7853 14.228 16.5251C14.228 15.2755 13.1667 14.2624 11.8576 14.2624C10.5485 14.2624 9.48723 15.2755 9.48723 16.5251C9.48723 16.7853 9.53325 17.0352 9.61794 17.2679C9.70776 17.5147 9.53674 17.818 9.26304 17.818H6.80974C6.61057 17.818 6.45413 17.6553 6.47096 17.4659C6.53267 16.7716 6.66762 15.1597 6.73598 13.6231Z" fill="white"/>
</svg>
