<svg width="86" height="32" viewBox="0 0 86 32" fill="none" xmlns="http://www.w3.org/2000/svg">
<rect width="32" height="32" rx="16" fill="#6F00FB"/>
<circle cx="18.5137" cy="14.5618" r="6.72" fill="white"/>
<path d="M8.13062 7.99969C8.13062 7.82296 8.27388 7.67969 8.45062 7.67969H13.156C13.3575 7.67969 13.5096 7.86239 13.473 8.06054C13.2369 9.33681 12.5023 13.5446 12.5114 16.4349C12.5202 19.2427 13.2388 23.3247 13.4725 24.579C13.5094 24.7772 13.3572 24.9597 13.1555 24.9597H8.45062C8.27388 24.9597 8.13062 24.8164 8.13062 24.6397V16.4349V7.99969Z" fill="white"/>
<path d="M39.5478 26H36.2152V13.3007H39.5478V26ZM37.8815 11.1041C37.3261 11.1041 36.8464 10.919 36.4424 10.5487C36.0553 10.1616 35.8617 9.69872 35.8617 9.16011C35.8617 8.58784 36.0553 8.11656 36.4424 7.74627C36.8464 7.37598 37.3261 7.19083 37.8815 7.19083C38.4538 7.19083 38.9335 7.38439 39.3206 7.77152C39.7077 8.14181 39.9013 8.60467 39.9013 9.16011C39.9013 9.69872 39.7077 10.1616 39.3206 10.5487C38.9335 10.919 38.4538 11.1041 37.8815 11.1041ZM53.4596 22.0362L55.2269 24.0812C54.5873 24.805 53.7626 25.3772 52.7527 25.798C51.7597 26.202 50.6572 26.404 49.4453 26.404C47.981 26.404 46.6934 26.1178 45.5825 25.5456C44.4716 24.9733 43.6048 24.1822 42.982 23.1723C42.3593 22.1624 42.0479 20.9926 42.0479 19.663C42.0479 18.3333 42.3425 17.1635 42.9316 16.1536C43.5375 15.1269 44.3538 14.3274 45.3805 13.7551C46.4241 13.1828 47.5939 12.8967 48.8899 12.8967C50.1523 12.8967 51.2715 13.1828 52.2478 13.7551C53.2408 14.3105 54.0151 15.0848 54.5705 16.0778C55.126 17.0709 55.4037 18.2239 55.4037 19.5367V19.6882H52.1468V19.3347C52.1468 18.5605 52.0037 17.8872 51.7176 17.315C51.4483 16.7427 51.0696 16.2967 50.5815 15.9769C50.1102 15.6571 49.5463 15.4972 48.8899 15.4972C48.1998 15.4972 47.5939 15.6655 47.0721 16.0021C46.5503 16.3219 46.1379 16.7932 45.835 17.4159C45.5488 18.0219 45.4058 18.7456 45.4058 19.5872C45.4058 20.4793 45.5825 21.2451 45.936 21.8847C46.3063 22.5075 46.8028 22.9872 47.4256 23.3238C48.0652 23.6436 48.7973 23.8035 49.6221 23.8035C51.1369 23.8035 52.4161 23.2144 53.4596 22.0362ZM55.4037 20.6728H44.1939V18.5521H54.9997L55.4037 19.5367V20.6728ZM67.8594 21.809L69.9297 23.8287C69.2733 24.6535 68.4738 25.2931 67.5312 25.7475C66.6055 26.1851 65.5451 26.404 64.3501 26.404C63.0372 26.404 61.859 26.1178 60.8155 25.5456C59.7719 24.9564 58.9472 24.157 58.3412 23.1471C57.7521 22.1203 57.4576 20.959 57.4576 19.663C57.4576 18.3501 57.7605 17.1887 58.3665 16.1788C58.9724 15.1521 59.7971 14.3526 60.8407 13.7804C61.9011 13.1912 63.0961 12.8967 64.4258 12.8967C65.5872 12.8967 66.6307 13.1239 67.5565 13.5784C68.4822 14.016 69.2733 14.6388 69.9297 15.4467L67.8594 17.4917C67.506 16.9531 67.0515 16.5155 66.4961 16.1788C65.9575 15.8422 65.3263 15.6739 64.6025 15.6739C63.8788 15.6739 63.2392 15.8422 62.6837 16.1788C62.1283 16.5155 61.6907 16.9867 61.3709 17.5927C61.0511 18.1986 60.8912 18.8887 60.8912 19.663C60.8912 20.4204 61.0511 21.102 61.3709 21.708C61.6907 22.3139 62.1283 22.7852 62.6837 23.1218C63.2392 23.4584 63.8788 23.6268 64.6025 23.6268C65.3431 23.6268 65.9827 23.4584 66.5213 23.1218C67.0599 22.7852 67.506 22.3476 67.8594 21.809ZM82.701 22.0362L84.4683 24.0812C83.8287 24.805 83.004 25.3772 81.9941 25.798C81.0011 26.202 79.8986 26.404 78.6867 26.404C77.2224 26.404 75.9348 26.1178 74.8239 25.5456C73.713 24.9733 72.8462 24.1822 72.2234 23.1723C71.6007 22.1624 71.2893 20.9926 71.2893 19.663C71.2893 18.3333 71.5838 17.1635 72.1729 16.1536C72.7789 15.1269 73.5952 14.3274 74.6219 13.7551C75.6655 13.1828 76.8353 12.8967 78.1313 12.8967C79.3936 12.8967 80.5129 13.1828 81.4892 13.7551C82.4822 14.3105 83.2565 15.0848 83.8119 16.0778C84.3673 17.0709 84.6451 18.2239 84.6451 19.5367V19.6882H81.3882V19.3347C81.3882 18.5605 81.2451 17.8872 80.959 17.315C80.6897 16.7427 80.311 16.2967 79.8228 15.9769C79.3516 15.6571 78.7877 15.4972 78.1313 15.4972C77.4412 15.4972 76.8353 15.6655 76.3135 16.0021C75.7917 16.3219 75.3793 16.7932 75.0764 17.4159C74.7902 18.0219 74.6472 18.7456 74.6472 19.5872C74.6472 20.4793 74.8239 21.2451 75.1774 21.8847C75.5477 22.5075 76.0442 22.9872 76.6669 23.3238C77.3065 23.6436 78.0387 23.8035 78.8635 23.8035C80.3783 23.8035 81.6575 23.2144 82.701 22.0362ZM84.6451 20.6728H73.4353V18.5521H84.2411L84.6451 19.5367V20.6728Z" fill="#6F00FB"/>
</svg>
