<svg width="60" height="60" viewBox="0 0 60 60" fill="none" xmlns="http://www.w3.org/2000/svg">
<g id="illust-Puzzle/illust-Puzzle-04">
<path id="Union" d="M12.999 20.0573C12.999 19.4819 13.4834 19.0285 14.0577 19.0623L26.1434 19.7732C24.3073 18.5114 23.1032 16.3963 23.1032 14C23.1032 10.134 26.2372 7 30.1032 7C33.9691 7 37.1032 10.134 37.1032 14C37.1032 16.3879 35.9075 18.4965 34.0823 19.7598L45.8718 19.0663C46.471 19.0311 46.966 19.5279 46.9286 20.127L46.4004 28.5786C46.3503 29.3797 45.3956 29.8251 44.6529 29.5206C43.8345 29.185 42.9384 29 41.999 29C38.133 29 34.999 32.134 34.999 36C34.999 39.866 38.133 43 41.999 43C42.9384 43 43.8345 42.815 44.6529 42.4794C45.3956 42.1749 46.3503 42.6203 46.4004 43.4214L46.9326 51.9376C46.9686 52.5133 46.5114 53 45.9346 53H13.999C13.4467 53 12.999 52.5524 12.999 52.0001V20.0573Z" fill="url(#paint0_linear_2784_20097)"/>
</g>
<defs>
<linearGradient id="paint0_linear_2784_20097" x1="7.81442" y1="56.8333" x2="24.5232" y2="-4.28783" gradientUnits="userSpaceOnUse">
<stop stop-color="#6F00FB"/>
<stop offset="1" stop-color="#D0ABFD"/>
</linearGradient>
</defs>
</svg>
