<svg width="60" height="60" viewBox="0 0 60 60" fill="none" xmlns="http://www.w3.org/2000/svg">
<g id="illust-Puzzle/illust-Puzzle-11">
<path id="Union" d="M14.8783 35.0221C13.6178 36.2463 11.8979 37 10.002 37C6.13596 37 3.00195 33.866 3.00195 30C3.00195 26.134 6.13596 23 10.002 23C11.8979 23 13.6178 23.7537 14.8783 24.9779C14.6764 20.2242 14.2779 15.2373 14.0957 13.0893C14.046 12.5032 14.508 12 15.0961 12H22.6539C23.5497 12 24.0714 13.1734 23.6846 13.9814C23.2472 14.8954 23.0022 15.9191 23.0022 17C23.0022 20.866 26.1362 24 30.0022 24C33.8682 24 37.0022 20.866 37.0022 17C37.0022 15.9191 36.7572 14.8954 36.3197 13.9814C35.9329 13.1734 36.4546 12 37.3504 12H44.9053C45.4935 12 45.9555 12.5032 45.9058 13.0893C45.7235 15.2376 45.3249 20.226 45.123 24.9804C46.3838 23.7548 48.1047 23 50.002 23C53.8679 23 57.002 26.134 57.002 30C57.002 33.866 53.8679 37 50.002 37C48.1047 37 46.3838 36.2452 45.123 35.0196C45.3249 39.774 45.7235 44.7624 45.9058 46.9107C45.9555 47.4968 45.4935 48 44.9053 48H15.0961C14.508 48 14.046 47.4968 14.0957 46.9107C14.2779 44.7627 14.6764 39.7758 14.8783 35.0221Z" fill="url(#paint0_linear_2784_20095)"/>
</g>
<defs>
<linearGradient id="paint0_linear_2784_20095" x1="-5.24805" y1="51" x2="1.54109" y2="0.504132" gradientUnits="userSpaceOnUse">
<stop stop-color="#6F00FB"/>
<stop offset="1" stop-color="#D0ABFD"/>
</linearGradient>
</defs>
</svg>
