<svg width="24" height="24" viewBox="0 0 24 24" fill="none" xmlns="http://www.w3.org/2000/svg">
<path fill-rule="evenodd" clip-rule="evenodd" d="M5.93333 5C5.41787 5 5 5.41787 5 5.93333V18.0667C5 18.5821 5.41787 19 5.93333 19H18.0667C18.5821 19 19 18.5821 19 18.0667V5.93333C19 5.41787 18.5821 5 18.0667 5H5.93333ZM7.80005 7.94C7.49077 7.94 7.24005 8.19072 7.24005 8.5C7.24005 8.80928 7.49077 9.06 7.80005 9.06H15.85C16.1593 9.06 16.41 8.80928 16.41 8.5C16.41 8.19072 16.1593 7.94 15.85 7.94H7.80005ZM7.24005 12C7.24005 11.6907 7.49077 11.44 7.80005 11.44H15.85C16.1593 11.44 16.41 11.6907 16.41 12C16.41 12.3093 16.1593 12.56 15.85 12.56H7.80005C7.49077 12.56 7.24005 12.3093 7.24005 12ZM7.80005 14.94C7.49077 14.94 7.24005 15.1907 7.24005 15.5C7.24005 15.8093 7.49077 16.06 7.80005 16.06H13.4C13.7093 16.06 13.96 15.8093 13.96 15.5C13.96 15.1907 13.7093 14.94 13.4 14.94H7.80005Z" fill="white"/>
<rect x="5" y="5" width="14" height="14" rx="0.933333" stroke="white" stroke-width="1.12" stroke-linejoin="round"/>
</svg>
