<svg width="20" height="20" viewBox="0 0 20 20" fill="none" xmlns="http://www.w3.org/2000/svg">
<path fill-rule="evenodd" clip-rule="evenodd" d="M10 0C4.47715 0 0 4.47715 0 10C0 15.5228 4.47715 20 10 20C15.5228 20 20 15.5228 20 10C20 4.47715 15.5228 0 10 0ZM14.4514 7.51877C14.7379 7.15859 14.6782 6.63434 14.318 6.34783C13.9578 6.06132 13.4336 6.12105 13.1471 6.48123L8.92052 11.7946L6.81584 9.47944C6.50625 9.13889 5.97921 9.11379 5.63866 9.42338C5.29811 9.73297 5.27301 10.26 5.5826 10.6006L8.28034 13.5681C8.66034 13.9861 9.32433 13.9642 9.67601 13.5221L14.4514 7.51877Z" fill="#CBD1D9"/>
</svg>
