<svg width="80" height="80" viewBox="0 0 80 80" fill="none" xmlns="http://www.w3.org/2000/svg">
<rect x="3" y="3" width="74" height="74" rx="37" fill="#6F00FB" stroke="white" stroke-width="6"/>
<path d="M56.6673 34.7127C56.6673 42.7836 49.9673 47.0838 45.064 50.9342C43.334 52.2918 41.6673 53.5714 40.0007 53.5714C40.0007 53.5714 40.0007 51.0591 40.0007 49.3924C40.0007 47.7258 40.0007 46.4026 40.0007 38.3333C40.0007 30.2641 40.0007 28.6782 40.0007 28.6782C47.5007 20.9176 56.6673 26.6418 56.6673 34.7127Z" fill="#D0ABFD"/>
<path d="M33.5079 49.829C28.8288 46.2384 23.334 42.0218 23.334 34.7127C23.334 26.691 32.3893 20.9875 39.8634 28.5378C39.9502 28.6256 40.0007 28.7472 40.0007 28.8707V36.2275C40.0007 36.7047 40.7751 36.9925 41.199 36.7731C41.6245 36.5529 42.1076 36.4286 42.6197 36.4286C44.3292 36.4286 45.7149 37.8144 45.7149 39.5238C45.7149 41.2333 44.3292 42.619 42.6197 42.619C42.1076 42.619 41.6245 42.4947 41.199 42.2745C40.7751 42.0551 40.0007 42.3429 40.0007 42.8201V49.3924V53.0952C40.0007 53.3582 39.7865 53.5741 39.526 53.5379C38.017 53.3278 36.5031 52.163 34.9373 50.9342C34.4745 50.5708 33.9956 50.2033 33.5079 49.829Z" fill="#F6EFFF"/>
</svg>
