<svg width="32" height="32" viewBox="0 0 32 32" fill="none" xmlns="http://www.w3.org/2000/svg">
<path d="M25.7795 21.1168C25.4925 23.6652 24.1584 24.6116 23.0895 24.9573C22.5639 25.1271 21.968 25.1953 21.3201 25.1648C20.197 25.112 18.9167 24.763 17.5698 24.1304C15.6291 23.2185 13.6818 21.7796 12.2274 20.1805C10.7728 18.5824 9.52186 16.5086 8.79619 14.4911C8.00248 12.2828 7.89396 10.3034 8.49098 8.91814C8.9356 7.88651 10.0039 6.6482 12.5672 6.60058C12.696 6.59752 12.8152 6.66898 12.8757 6.78325L15.2069 11.2186C15.2794 11.3557 15.2492 11.5255 15.1349 11.6296L12.8954 13.6678C13.339 14.961 14.172 16.3344 15.2047 17.4688C16.2374 18.6032 17.5274 19.5626 18.7722 20.1267L21.0128 18.0885C21.1281 17.9835 21.2989 17.9702 21.4287 18.0554L25.6258 20.7924C25.7339 20.8634 25.7929 20.9887 25.7788 21.1167L25.7795 21.1168Z" fill="#1B1A2A"/>
</svg>
