<svg width="60" height="60" viewBox="0 0 60 60" fill="none" xmlns="http://www.w3.org/2000/svg">
<g id="illust-Puzzle/illust-Puzzle-12">
<path id="Union" d="M24.9779 14.8764C23.7537 13.6158 23 11.8959 23 10C23 6.13401 26.134 3 30 3C33.866 3 37 6.13401 37 10C37 11.8959 36.2463 13.6158 35.0221 14.8764C39.7758 14.6745 44.7627 14.276 46.9107 14.0937C47.4968 14.044 48 14.506 48 15.0942V22.3391C48 23.1473 47.0617 23.6524 46.2982 23.3871C45.5783 23.137 44.805 23.0012 44 23.0012C40.134 23.0012 37 26.1352 37 30.0012C37 33.8671 40.134 37.0012 44 37.0012C44.805 37.0012 45.5783 36.8653 46.2982 36.6152C47.0617 36.3499 48 36.855 48 37.6632V44.9034C48 45.4915 47.4968 45.9535 46.9107 45.9038C44.7624 45.7216 39.774 45.3229 35.0196 45.1211C36.2452 46.3818 37 48.1028 37 50C37 53.866 33.866 57 30 57C26.134 57 23 53.866 23 50C23 48.1028 23.7548 46.3818 24.9804 45.1211C20.226 45.3229 15.2376 45.7216 13.0893 45.9038C12.5032 45.9535 12 45.4915 12 44.9034V37.6632C12 36.855 12.9383 36.3499 13.7018 36.6152C14.4217 36.8653 15.195 37.0012 16 37.0012C19.866 37.0012 23 33.8671 23 30.0012C23 26.1352 19.866 23.0012 16 23.0012C15.195 23.0012 14.4217 23.137 13.7018 23.3871C12.9383 23.6524 12 23.1473 12 22.3391V15.0942C12 14.506 12.5032 14.044 13.0893 14.0937C15.2373 14.276 20.2242 14.6745 24.9779 14.8764Z" fill="url(#paint0_linear_2784_20100)"/>
</g>
<defs>
<linearGradient id="paint0_linear_2784_20100" x1="6.5" y1="61.5" x2="27.8717" y2="-9.14781" gradientUnits="userSpaceOnUse">
<stop stop-color="#6F00FB"/>
<stop offset="1" stop-color="#D0ABFD"/>
</linearGradient>
</defs>
</svg>
