<svg width="20" height="20" viewBox="0 0 20 20" fill="none" xmlns="http://www.w3.org/2000/svg">
<g clip-path="url(#clip0_669_8561)">
<path fill-rule="evenodd" clip-rule="evenodd" d="M17.846 10.1818C17.846 9.6145 17.7951 9.06905 17.7006 8.54541H10.166V11.64H14.4715C14.286 12.64 13.7224 13.4872 12.8751 14.0545V16.0618H15.4606C16.9733 14.669 17.846 12.6181 17.846 10.1818Z" fill="#4285F4"/>
<path fill-rule="evenodd" clip-rule="evenodd" d="M10.1657 18C12.3257 18 14.1366 17.2836 15.4602 16.0618L12.8748 14.0545C12.1584 14.5345 11.2421 14.8181 10.1657 14.8181C8.08206 14.8181 6.31842 13.4109 5.68933 11.52H3.0166V13.5927C4.33297 16.2072 7.03842 18 10.1657 18Z" fill="#34A853"/>
<path fill-rule="evenodd" clip-rule="evenodd" d="M5.68965 11.5201C5.52965 11.0401 5.43874 10.5274 5.43874 10.0001C5.43874 9.47286 5.52965 8.96014 5.68965 8.48014V6.40741H3.01692C2.47511 7.48741 2.16602 8.70923 2.16602 10.0001C2.16602 11.291 2.47511 12.5129 3.01692 13.5929L5.68965 11.5201Z" fill="#FBBC05"/>
<path fill-rule="evenodd" clip-rule="evenodd" d="M10.1657 5.18182C11.3402 5.18182 12.3948 5.58546 13.2239 6.37818L15.5184 4.08364C14.133 2.79273 12.3221 2 10.1657 2C7.03842 2 4.33297 3.79273 3.0166 6.40727L5.68933 8.48C6.31842 6.58909 8.08206 5.18182 10.1657 5.18182Z" fill="#EA4335"/>
</g>
<defs>
<clipPath id="clip0_669_8561">
<rect x="2.16602" y="2" width="16" height="16" rx="3.55556" fill="white"/>
</clipPath>
</defs>
</svg>
