<svg width="60" height="60" viewBox="0 0 60 60" fill="none" xmlns="http://www.w3.org/2000/svg">
<path d="M33.368 51.9996C33.368 51.9996 31.2249 51.9996 31.2249 51.9996C30.9084 51.9996 30.5064 51.9996 29.9999 51.9996C29.2813 51.9996 28.7655 51.9996 28.4009 51.9996C28.4007 51.9996 26.7991 52 26.799 52C26.1788 51.9998 26.1532 51.9996 25.428 51.9998H12.9999C12.4476 51.9998 11.9999 51.5521 11.9999 50.9998L11.9999 40.3698C11.9998 37.467 11.9998 36.4541 11.9998 36.4541C11.9998 36.4541 11.9998 34.6924 11.9999 30.3991L11.9999 19.769C11.9999 19.2168 12.4476 18.769 12.9999 18.769H24.8049C25.1863 18.769 25.582 18.5513 25.5769 18.1699C25.5715 17.76 25.3319 17.4146 25.0081 17.0719C24.7877 16.8857 24.5846 16.6872 24.4009 16.4778C24.3695 16.4474 24.3382 16.4168 24.307 16.3859C24.3047 16.3836 24.3053 16.3798 24.3082 16.3784C24.3109 16.377 24.3117 16.3735 24.3097 16.3711C23.6388 15.5644 23.2499 14.6055 23.2499 13.5767C23.2499 10.7091 26.2719 8.38443 29.9999 8.38443C33.7278 8.38443 36.7499 10.7091 36.7499 13.5767C36.7499 14.6055 36.3609 15.5644 35.69 16.3711C35.688 16.3735 35.6888 16.377 35.6915 16.3784C35.6944 16.3798 35.695 16.3836 35.6927 16.3859C35.6615 16.4168 35.6302 16.4474 35.5988 16.4778C35.4151 16.6872 35.212 16.8857 34.9916 17.0719C34.6678 17.4146 34.4282 17.76 34.4228 18.1699C34.4177 18.5513 34.8134 18.769 35.1948 18.769L46.9999 18.769C47.5521 18.769 47.9999 19.2168 47.9999 19.769L47.9999 28.2665C47.9999 29.1141 46.9502 29.633 46.1405 29.3826C45.6582 29.2334 45.1498 29.1537 44.6245 29.1537C41.5179 29.1537 38.9995 31.9433 38.9995 35.3844C38.9995 38.8256 41.5179 41.6152 44.6245 41.6152C45.1498 41.6152 45.6582 41.5354 46.1405 41.3863C46.9502 41.1359 47.9999 41.6548 47.9999 42.5023V50.9998C47.9999 51.5521 47.5583 51.9998 47.0061 51.9998C43.9785 51.9998 35.0462 51.9999 34.5717 51.9998C33.9999 51.9998 33.368 51.9996 33.368 51.9996Z" fill="url(#paint0_linear_682_7880)"/>
<defs>
<linearGradient id="paint0_linear_682_7880" x1="12.3997" y1="62.3872" x2="46.5999" y2="8.38718" gradientUnits="userSpaceOnUse">
<stop stop-color="#C4B9FF"/>
<stop offset="1" stop-color="#7B42FF"/>
</linearGradient>
</defs>
</svg>
