<svg width="60" height="60" viewBox="0 0 60 60" fill="none" xmlns="http://www.w3.org/2000/svg">
<g id="illust-Puzzle/illust-Puzzle-03">
<path id="Union" d="M46.9346 20.0573C46.9346 19.4819 46.4503 19.0285 45.8759 19.0623L33.7902 19.7732C35.6264 18.5114 36.8305 16.3963 36.8305 14C36.8305 10.134 33.6965 7 29.8305 7C25.9645 7 22.8305 10.134 22.8305 14C22.8305 16.3879 24.0261 18.4965 25.8513 19.7598L14.0618 19.0663C13.4626 19.0311 12.9676 19.5279 13.005 20.127L13.5559 28.9403C13.6111 29.8242 14.7839 30.271 15.5617 29.8476C16.5548 29.3071 17.6932 29 18.9034 29C22.7694 29 25.9034 32.134 25.9034 36C25.9034 39.866 22.7694 43 18.9034 43C17.6932 43 16.5548 42.6929 15.5617 42.1524C14.7839 41.729 13.6111 42.1758 13.5559 43.0597L13.001 51.9376C12.965 52.5133 13.4222 53 13.9991 53H45.9346C46.4869 53 46.9346 52.5524 46.9346 52.0001V20.0573Z" fill="url(#paint0_linear_2784_20093)"/>
</g>
<defs>
<linearGradient id="paint0_linear_2784_20093" x1="7.81442" y1="56.8333" x2="24.5232" y2="-4.28783" gradientUnits="userSpaceOnUse">
<stop stop-color="#6F00FB"/>
<stop offset="1" stop-color="#D0ABFD"/>
</linearGradient>
</defs>
</svg>
