<svg width="20" height="24" viewBox="0 0 20 24" fill="none" xmlns="http://www.w3.org/2000/svg">
<mask id="mask0_502_10078" style="mask-type:alpha" maskUnits="userSpaceOnUse" x="0" y="0" width="20" height="24">
<path d="M7.7875 4.70843C7.7875 4.29422 8.12328 3.95844 8.53749 3.95844H11.452C11.8662 3.95844 12.202 4.29422 12.202 4.70843C12.202 5.12264 11.8662 5.45843 11.452 5.45843H8.53749C8.12328 5.45843 7.7875 5.12264 7.7875 4.70843Z" fill="#171719"/>
<path d="M6.37265 4.69651C6.3852 5.11053 6.05974 5.45633 5.64571 5.46888C4.93171 5.49052 4.63428 5.54709 4.4224 5.65605L4.41482 5.65995C4.09326 5.82073 3.82575 6.0891 3.64426 6.43521C3.53599 6.64696 3.47972 6.94477 3.45815 7.65644C3.44561 8.07046 3.09981 8.39592 2.68578 8.38338C2.27176 8.37083 1.9463 8.02503 1.95885 7.61101C1.98039 6.90014 2.03176 6.29084 2.3114 5.74711L2.31368 5.74267C2.62809 5.14119 3.11444 4.63409 3.74027 4.32013C4.28302 4.04225 4.89111 3.99106 5.60028 3.96957C6.0143 3.95703 6.3601 4.28249 6.37265 4.69651Z" fill="#171719"/>
<path d="M13.6168 4.69651C13.6294 4.28249 13.9752 3.95703 14.3892 3.96957C15.0984 3.99106 15.7065 4.04225 16.2492 4.32013C16.875 4.63408 17.3614 5.1412 17.6758 5.74268L17.6781 5.7471C17.9577 6.29083 18.0091 6.90014 18.0306 7.61101C18.0432 8.02503 17.7177 8.37083 17.3037 8.38338C16.8897 8.39592 16.5439 8.07046 16.5313 7.65644C16.5098 6.94477 16.4535 6.64696 16.3452 6.43522C16.1637 6.08911 15.8962 5.82069 15.5747 5.65991L15.5671 5.65609C15.3552 5.54713 15.0578 5.49052 14.3438 5.46888C13.9297 5.45633 13.6043 5.11053 13.6168 4.69651Z" fill="#171719"/>
<path d="M2.7085 9.78743C3.12271 9.78743 3.4585 10.1232 3.4585 10.5374V13.4519C3.4585 13.8661 3.12271 14.2019 2.7085 14.2019C2.29429 14.2019 1.9585 13.8661 1.9585 13.4519V10.5374C1.9585 10.1232 2.29429 9.78743 2.7085 9.78743Z" fill="#171719"/>
<path d="M17.281 9.78743C17.6952 9.78743 18.031 10.1232 18.031 10.5374V13.4519C18.031 13.8661 17.6952 14.2019 17.281 14.2019C16.8668 14.2019 16.531 13.8661 16.531 13.4519V10.5374C16.531 10.1232 16.8668 9.78743 17.281 9.78743Z" fill="#171719"/>
<path d="M17.3145 15.6168C17.7285 15.6293 18.054 15.9751 18.0414 16.3891C18.0199 17.1 17.9685 17.7093 17.6889 18.253L17.6866 18.2575C17.3721 18.859 16.8858 19.3661 16.2599 19.6801C15.7172 19.9579 15.1091 20.0091 14.4 20.0306C13.986 20.0431 13.6402 19.7177 13.6276 19.3036C13.6151 18.8896 13.9405 18.5438 14.3546 18.5313C15.0686 18.5096 15.366 18.4531 15.5779 18.3441L15.5855 18.3402C15.907 18.1794 16.1745 17.911 16.356 17.5649C16.4643 17.3532 16.5206 17.0554 16.5421 16.3437C16.5547 15.9297 16.9005 15.6042 17.3145 15.6168Z" fill="#171719"/>
<path d="M2.68578 15.6276C3.09981 15.615 3.44561 15.9405 3.45815 16.3545C3.47979 17.0685 3.53636 17.3659 3.64532 17.5778L3.64922 17.5854C3.81 17.9069 4.07838 18.1745 4.42449 18.356C4.63623 18.4642 4.93405 18.5205 5.64571 18.5421C6.05974 18.5546 6.3852 18.9004 6.37265 19.3144C6.3601 19.7284 6.0143 20.0539 5.60028 20.0414C4.88941 20.0198 4.28012 19.9684 3.73638 19.6888L3.73195 19.6865C3.13047 19.3721 2.62336 18.8858 2.3094 18.2599C2.03152 17.7172 1.98034 17.1091 1.95885 16.3999C1.9463 15.9859 2.27176 15.6401 2.68578 15.6276Z" fill="#171719"/>
<path d="M7.7875 19.2809C7.7875 18.8667 8.12328 18.5309 8.53749 18.5309H11.452C11.8662 18.5309 12.202 18.8667 12.202 19.2809C12.202 19.6951 11.8662 20.0309 11.452 20.0309H8.53749C8.12328 20.0309 7.7875 19.6951 7.7875 19.2809Z" fill="#171719"/>
</mask>
<g mask="url(#mask0_502_10078)">
<rect width="19.9999" height="24" fill="#1B1A2A"/>
</g>
</svg>
