<svg width="40" height="40" viewBox="0 0 40 40" fill="none" xmlns="http://www.w3.org/2000/svg">
<path d="M36.6667 15.7127C36.6667 23.7836 29.9667 28.0838 25.0633 31.9342C23.3333 33.2918 21.6667 34.5714 20 34.5714C20 34.5714 20 32.0591 20 30.3924C20 28.7258 20 27.4026 20 19.3333C20 11.2641 20 9.67818 20 9.67818C27.5 1.91761 36.6667 7.64178 36.6667 15.7127Z" fill="#D0ABFD"/>
<path d="M3.33333 15.7127C3.33333 23.7836 10.0333 28.0838 14.9367 31.9342C16.6667 33.2918 18.3333 34.5714 20 34.5714C20 34.5714 20 32.0591 20 30.3924C20 28.7258 20 30.0693 20 22C20 13.9307 20 9.67818 20 9.67818C12.5 1.91761 3.33333 7.64178 3.33333 15.7127Z" fill="#F6EFFF"/>
<path d="M26 20C26 22.2091 24.2091 24 22 24C19.7909 24 18 22.2091 18 20C18 17.7909 19.7909 16 22 16C24.2091 16 26 17.7909 26 20Z" fill="#F6EFFF"/>
</svg>
