<svg width="20" height="20" viewBox="0 0 20 20" fill="none" xmlns="http://www.w3.org/2000/svg">
<path fill-rule="evenodd" clip-rule="evenodd" d="M6.63159 13.9252C9.18954 13.9252 11.2632 12.2959 11.2632 10.2861C11.2632 8.27626 9.18954 6.64697 6.63159 6.64697C4.07363 6.64697 2 8.27626 2 10.2861C2 11.5216 2.78361 12.6133 3.98163 13.2711L3.32235 15.2489L5.58856 13.8325C5.92379 13.8932 6.27293 13.9252 6.63159 13.9252Z" fill="#1B1A2A"/>
<path fill-rule="evenodd" clip-rule="evenodd" d="M9.29958 14.1986C9.92142 14.3474 10.5814 14.4274 11.2652 14.4274C11.7867 14.4274 12.2944 14.3809 12.7819 14.2927L16.0782 16.3529L15.1193 13.4762C16.8621 12.5194 18.002 10.9314 18.002 9.13418C18.002 6.21081 14.9858 3.84094 11.2652 3.84094C9.13172 3.84094 7.2299 4.62014 5.99554 5.83609C6.20652 5.8155 6.41957 5.80499 6.63361 5.80499C9.45614 5.80499 12.1073 7.63342 12.1073 10.2862C12.1073 12.0575 10.9253 13.4612 9.29958 14.1986ZM7.99866 13.7647C9.89034 13.3069 11.2652 11.9227 11.2652 10.2862C11.2652 8.27638 9.19156 6.64709 6.63361 6.64709C6.13395 6.64709 5.65277 6.70926 5.20192 6.82429C4.77037 7.5223 4.52832 8.30603 4.52832 9.13418C4.52832 11.1263 5.92894 12.8614 7.99866 13.7647Z" fill="#1B1A2A"/>
</svg>
