<svg width="20" height="20" viewBox="0 0 20 20" fill="none" xmlns="http://www.w3.org/2000/svg">
<g id="ico/Variant2">
<path id="Vector" d="M3.40307 10.2036L3.40299 10.2036L3.40331 10.2138C3.44055 11.3626 3.77718 12.4819 4.37991 13.4607C4.98263 14.4394 5.83053 15.2438 6.83968 15.7942C7.84883 16.3446 8.98423 16.6219 10.1335 16.5986C11.2827 16.5754 12.406 16.2524 13.392 15.6616C14.3781 15.0709 15.1927 14.2328 15.7554 13.2304C16.318 12.2281 16.6091 11.0961 16.5998 9.94669C16.5905 8.79726 16.2812 7.67017 15.7024 6.67702C15.1237 5.68387 14.2956 4.85909 13.3001 4.28433C12.3125 3.71409 11.194 3.40948 10.0536 3.40022C8.91315 3.39095 7.78981 3.67733 6.79304 4.23145C5.79628 4.78556 4.9601 5.5885 4.36603 6.56198C3.77196 7.53546 3.44028 8.64626 3.40332 9.78609L3.40323 9.78608L3.40307 9.79628L3.40007 9.99068L3.39993 9.99993L3.40007 10.0092L3.40307 10.2036ZM10.0001 9.75093V9.97957L10.0001 9.97935V7.01787L10.0001 7.01774L10.0001 7.01787V9.75093ZM11.7857 11.786L10.0149 10.0152L10.0081 10.0074L10.1757 10.1751L11.7868 11.7868L11.7877 11.7877L11.7857 11.786Z" stroke="#909599" stroke-width="1.2"/>
</g>
</svg>
