<svg width="24" height="24" viewBox="0 0 24 24" fill="none" xmlns="http://www.w3.org/2000/svg">
<g id="ico/Refresh-24">
<path id="Ellipse 1608" d="M19.022 14.91C18.64 15.832 18.0802 16.6698 17.3745 17.3756C16.6688 18.0813 15.831 18.6411 14.9089 19.023C13.9868 19.405 12.9985 19.6016 12.0005 19.6016C11.0024 19.6016 10.0142 19.405 9.09209 19.023C8.17002 18.6411 7.3322 18.0813 6.62648 17.3756C5.92075 16.6698 5.36094 15.832 4.979 14.91M19.022 14.91L15.8001 14.91M19.022 14.91L19.972 18.1766" stroke="#6C7073" stroke-width="1.2" stroke-linecap="round" stroke-linejoin="round"/>
<path id="Ellipse 1609" d="M4.97803 9.15254C5.35996 8.23047 5.91977 7.39265 6.6255 6.68693C7.33122 5.9812 8.16904 5.42139 9.09112 5.03945C10.0132 4.65752 11.0015 4.46094 11.9995 4.46094C12.9976 4.46094 13.9858 4.65752 14.9079 5.03945C15.83 5.42139 16.6678 5.9812 17.3735 6.68693C18.0792 7.39265 18.6391 8.23047 19.021 9.15254M4.97803 9.15254L8.1999 9.15254M4.97803 9.15254L4.02803 5.88594" stroke="#6C7073" stroke-width="1.2" stroke-linecap="round" stroke-linejoin="round"/>
</g>
</svg>
