<svg width="60" height="60" viewBox="0 0 60 60" fill="none" xmlns="http://www.w3.org/2000/svg">
<g id="illust-Puzzle/illust-Puzzle-07">
<path id="Union" d="M14.8487 35.0488C13.5907 36.2572 11.8821 37 10 37C6.13401 37 3 33.866 3 30C3 26.134 6.13401 23 10 23C11.8821 23 13.5907 23.7428 14.8487 24.9512C14.6483 21.0751 14.2994 17.1307 14.1178 15.2062C14.0586 14.5797 14.5805 14.052 15.2077 14.1046C17.3205 14.2819 21.8652 14.6382 26.0831 14.8024C24.2229 13.5442 23 11.4149 23 9C23 5.13401 26.134 2 30 2C33.866 2 37 5.13401 37 9C37 11.4149 35.7771 13.5442 33.9169 14.8024C38.1349 14.6382 42.6799 14.2819 44.7927 14.1046C45.4199 14.052 45.9418 14.5797 45.8827 15.2062C45.701 17.1306 45.3521 21.0748 45.1517 24.9508C46.4097 23.7426 48.1181 23 50 23C53.866 23 57 26.134 57 30C57 33.866 53.866 37 50 37C48.1181 37 46.4097 36.2574 45.1517 35.0492C45.356 38.9998 45.7145 43.0211 45.893 44.9025C45.9489 45.4925 45.485 46 44.8923 46H34.899C36.1955 47.2705 37 49.0413 37 51C37 54.866 33.866 58 30 58C26.134 58 23 54.866 23 51C23 49.0413 23.8045 47.2705 25.101 46H15.1081C14.5154 46 14.0515 45.4925 14.1075 44.9025C14.286 43.021 14.6445 38.9995 14.8487 35.0488Z" fill="url(#paint0_linear_2784_20091)"/>
</g>
<defs>
<linearGradient id="paint0_linear_2784_20091" x1="-5.25" y1="62.6667" x2="10.7741" y2="-13.951" gradientUnits="userSpaceOnUse">
<stop stop-color="#6F00FB"/>
<stop offset="1" stop-color="#D0ABFD"/>
</linearGradient>
</defs>
</svg>
