<svg width="20" height="20" viewBox="0 0 20 20" fill="none" xmlns="http://www.w3.org/2000/svg">
<path fill-rule="evenodd" clip-rule="evenodd" d="M5.43955 2C4.52755 2 3.65289 2.3622 3.00789 3.00695C2.36288 3.65171 2.00035 4.52623 2 5.43823V14.6104C2 15.5226 2.36238 16.3974 3.00742 17.0425C3.65246 17.6875 4.52732 18.0499 5.43955 18.0499H14.6117C15.5237 18.0495 16.3982 17.687 17.0429 17.042C17.6877 16.397 18.0499 15.5223 18.0499 14.6104V5.43823C18.0495 4.52646 17.6872 3.65214 17.0425 3.00742C16.3978 2.3627 15.5234 2.00035 14.6117 2H5.43955ZM15.601 5.44351C15.601 5.70625 15.4966 5.95822 15.3108 6.14401C15.1251 6.32979 14.8731 6.43416 14.6104 6.43416C14.3476 6.43416 14.0956 6.32979 13.9099 6.14401C13.7241 5.95822 13.6197 5.70625 13.6197 5.44351C13.6197 5.18077 13.7241 4.9288 13.9099 4.74301C14.0956 4.55723 14.3476 4.45286 14.6104 4.45286C14.8731 4.45286 15.1251 4.55723 15.3108 4.74301C15.4966 4.9288 15.601 5.18077 15.601 5.44351ZM10.0269 7.27688C9.29827 7.27688 8.59946 7.56634 8.08422 8.08158C7.56898 8.59681 7.27952 9.29563 7.27952 10.0243C7.27952 10.7529 7.56898 11.4518 8.08422 11.967C8.59946 12.4822 9.29827 12.7717 10.0269 12.7717C10.7556 12.7717 11.4544 12.4822 11.9696 11.967C12.4849 11.4518 12.7743 10.7529 12.7743 10.0243C12.7743 9.29563 12.4849 8.59681 11.9696 8.08158C11.4544 7.56634 10.7556 7.27688 10.0269 7.27688ZM5.95733 10.0243C5.95733 8.94531 6.38595 7.91053 7.1489 7.14758C7.91185 6.38463 8.94663 5.95601 10.0256 5.95601C11.1046 5.95601 12.1394 6.38463 12.9023 7.14758C13.6653 7.91053 14.0939 8.94531 14.0939 10.0243C14.0939 11.1033 13.6653 12.138 12.9023 12.901C12.1394 13.6639 11.1046 14.0926 10.0256 14.0926C8.94663 14.0926 7.91185 13.6639 7.1489 12.901C6.38595 12.138 5.95733 11.1033 5.95733 10.0243Z" fill="#1B1A2A"/>
</svg>
