<svg width="60" height="60" viewBox="0 0 60 60" fill="none" xmlns="http://www.w3.org/2000/svg">
<g id="illust-Puzzle/illust-Puzzle-05">
<path id="Subtract" d="M29.8368 24.0002C25.9708 24.0002 22.8368 20.8662 22.8368 17.0002C22.8368 15.9193 23.0817 14.8957 23.5192 13.9817C23.906 13.1737 23.3843 12.0002 22.4885 12.0002H12.6285C12.1072 12.0002 11.6804 12.3947 11.6414 12.9146C11.4927 14.8964 11.1447 19.7936 10.9578 24.5504C10.9223 25.454 12.1029 26.0085 12.9252 25.6321C13.8115 25.2264 14.7971 25.0002 15.8356 25.0002C19.7016 25.0002 22.8356 28.1343 22.8356 32.0002C22.8356 35.8662 19.7016 39.0002 15.8356 39.0002C14.8602 39.0002 13.9315 38.8008 13.0878 38.4404C12.2606 38.0869 11.1039 38.6641 11.153 39.5623C11.3303 42.8097 11.536 45.6807 11.6414 47.0859C11.6804 47.6058 12.1072 48.0002 12.6285 48.0002H47.8391C48.3914 48.0002 48.834 47.5562 48.834 47.0039V39.3167C48.834 38.4106 47.628 37.8858 46.8148 38.2857C45.8842 38.7433 44.8372 39.0002 43.7301 39.0002C39.8641 39.0002 36.7301 35.8662 36.7301 32.0002C36.7301 28.1343 39.8641 25.0002 43.7301 25.0002C44.8372 25.0002 45.8842 25.2572 46.8148 25.7148C47.628 26.1146 48.834 25.5899 48.834 24.6837V12.9966C48.834 12.4443 48.3914 12.0002 47.8391 12.0002H37.185C36.2892 12.0002 35.7675 13.1737 36.1543 13.9817C36.5918 14.8957 36.8368 15.9193 36.8368 17.0002C36.8368 20.8662 33.7027 24.0002 29.8368 24.0002Z" fill="url(#paint0_linear_2784_20089)"/>
</g>
<defs>
<linearGradient id="paint0_linear_2784_20089" x1="5.17027" y1="51.0002" x2="14.6751" y2="1.41346" gradientUnits="userSpaceOnUse">
<stop stop-color="#6F00FB"/>
<stop offset="1" stop-color="#D0ABFD"/>
</linearGradient>
</defs>
</svg>
