<svg width="24" height="24" viewBox="0 0 24 24" fill="none" xmlns="http://www.w3.org/2000/svg">
<path fill-rule="evenodd" clip-rule="evenodd" d="M14.9655 6.50259C15.3031 6.17638 15.7553 5.99583 16.2248 5.99981C16.6942 6.0038 17.1433 6.192 17.4753 6.52389C17.8074 6.85578 17.9958 7.3048 17.9999 7.77424C18.0041 8.24368 17.8237 8.69598 17.4977 9.03372L10.068 16.4644C9.80591 16.7246 9.49602 16.9317 9.15537 17.0742L7.0611 17.9418C6.92087 17.9999 6.76657 18.0151 6.6177 17.9855C6.46882 17.9559 6.33207 17.8828 6.22474 17.7755C6.11741 17.6682 6.04433 17.5314 6.01473 17.3826C5.98513 17.2337 6.00035 17.0794 6.05847 16.9392L6.92605 14.8449C7.06858 14.5042 7.27564 14.1943 7.53581 13.9323L14.9655 6.50259Z" fill="#1B1A2A"/>
</svg>
