<svg width="32" height="32" viewBox="0 0 32 32" fill="none" xmlns="http://www.w3.org/2000/svg">
<mask id="mask0_316_748" style="mask-type:alpha" maskUnits="userSpaceOnUse" x="0" y="0" width="32" height="32">
<path d="M12.4599 4.33281C12.4599 3.67007 12.9972 3.13281 13.6599 3.13281H18.3231C18.9859 3.13281 19.5231 3.67007 19.5231 4.33281C19.5231 4.99555 18.9859 5.5328 18.3231 5.5328H13.6599C12.9972 5.5328 12.4599 4.99555 12.4599 4.33281Z" fill="#171719"/>
<path d="M10.1962 4.31373C10.2163 4.97617 9.69553 5.52945 9.03309 5.54952C7.89069 5.58414 7.4148 5.67465 7.0758 5.849L7.06367 5.85523C6.54917 6.11248 6.12115 6.54188 5.83076 7.09565C5.65753 7.43445 5.5675 7.91096 5.533 9.04962C5.51292 9.71206 4.95964 10.2328 4.2972 10.2127C3.63477 10.1926 3.11403 9.63936 3.13411 8.97693C3.16857 7.83954 3.25077 6.86466 3.69819 5.99469L3.70184 5.98759C4.20489 5.02523 4.98305 4.21386 5.98438 3.71153C6.85278 3.26691 7.82572 3.18502 8.9604 3.15063C9.62283 3.13056 10.1761 3.6513 10.1962 4.31373Z" fill="#171719"/>
<path d="M21.7869 4.31373C21.807 3.6513 22.3602 3.13056 23.0227 3.15063C24.1574 3.18502 25.1303 3.26691 25.9987 3.71152C27 4.21385 27.7782 5.02524 28.2812 5.9876L28.2849 5.99468C28.7323 6.86465 28.8145 7.83954 28.849 8.97693C28.869 9.63936 28.3483 10.1926 27.6859 10.2127C27.0234 10.2328 26.4702 9.71206 26.4501 9.04962C26.4156 7.91096 26.3255 7.43446 26.1523 7.09566C25.8619 6.54189 25.4339 6.11242 24.9194 5.85516L24.9072 5.84907C24.5682 5.67472 24.0924 5.58414 22.95 5.54952C22.2875 5.52945 21.7668 4.97617 21.7869 4.31373Z" fill="#171719"/>
<path d="M4.33355 12.4592C4.99629 12.4592 5.53355 12.9965 5.53355 13.6592V18.3224C5.53355 18.9851 4.99629 19.5224 4.33355 19.5224C3.67081 19.5224 3.13356 18.9851 3.13356 18.3224V13.6592C3.13356 12.9965 3.67081 12.4592 4.33355 12.4592Z" fill="#171719"/>
<path d="M27.6495 12.4592C28.3123 12.4592 28.8495 12.9965 28.8495 13.6592V18.3224C28.8495 18.9851 28.3123 19.5224 27.6495 19.5224C26.9868 19.5224 26.4495 18.9851 26.4495 18.3224V13.6592C26.4495 12.9965 26.9868 12.4592 27.6495 12.4592Z" fill="#171719"/>
<path d="M27.7031 21.7861C28.3656 21.8062 28.8863 22.3595 28.8662 23.0219C28.8318 24.1593 28.7496 25.1342 28.3022 26.0042L28.2985 26.0113C27.7954 26.9737 27.0172 27.7851 26.0157 28.2875C25.1474 28.732 24.1745 28.8138 23.0399 28.8482C22.3775 28.8683 21.8242 28.3476 21.8042 27.6851C21.7841 27.0227 22.3048 26.4694 22.9673 26.4493C24.1097 26.4147 24.5855 26.3242 24.9246 26.1499L24.9367 26.1436C25.4512 25.8864 25.8792 25.457 26.1696 24.9032C26.3428 24.5644 26.4328 24.0879 26.4674 22.9492C26.4874 22.2868 27.0407 21.7661 27.7031 21.7861Z" fill="#171719"/>
<path d="M4.2972 21.8034C4.95964 21.7833 5.51292 22.3041 5.533 22.9665C5.56761 24.1089 5.65813 24.5848 5.83247 24.9238L5.83871 24.9359C6.09596 25.4504 6.52536 25.8785 7.07913 26.1688C7.41793 26.3421 7.89443 26.4321 9.03309 26.4666C9.69553 26.4867 10.2163 27.04 10.1962 27.7024C10.1761 28.3648 9.62283 28.8856 8.9604 28.8655C7.82301 28.831 6.84814 28.7488 5.97816 28.3014L5.97108 28.2977C5.00871 27.7947 4.19732 27.0165 3.695 26.0152C3.25038 25.1468 3.16849 24.1739 3.13411 23.0392C3.11403 22.3768 3.63477 21.8235 4.2972 21.8034Z" fill="#171719"/>
<path d="M12.4599 27.6488C12.4599 26.986 12.9972 26.4488 13.6599 26.4488H18.3231C18.9859 26.4488 19.5231 26.986 19.5231 27.6488C19.5231 28.3115 18.9859 28.8488 18.3231 28.8488H13.6599C12.9972 28.8488 12.4599 28.3115 12.4599 27.6488Z" fill="#171719"/>
</mask>
<g mask="url(#mask0_316_748)">
<rect width="31.9999" height="31.9999" fill="#1B1A2A"/>
</g>
</svg>
