<svg width="60" height="60" viewBox="0 0 60 60" fill="none" xmlns="http://www.w3.org/2000/svg">
<path d="M10.9939 24.3083C10.9926 24.3111 10.989 24.3118 10.9867 24.3099C10.1799 23.6389 9.22107 23.25 8.19231 23.25C5.32468 23.25 3 26.2721 3 30C3 33.7279 5.32468 36.75 8.19231 36.75C9.22107 36.75 10.1799 36.3611 10.9867 35.6901C10.989 35.6882 10.9926 35.6889 10.9939 35.6916C10.9953 35.6946 10.9992 35.6952 11.0015 35.6929C11.0324 35.6616 11.063 35.6303 11.0934 35.599C11.3028 35.4152 11.5013 35.2122 11.6875 34.9917C12.0302 34.668 12.3756 34.4284 12.7855 34.4229C13.1669 34.4178 13.3846 34.8135 13.3846 35.1949V47C13.3846 47.5523 13.8323 48 14.3846 48H22.882C23.7294 48 24.2483 46.9505 23.998 46.1409C23.8489 45.6588 23.7692 45.1505 23.7692 44.6254C23.7692 41.5188 26.5588 39.0004 30 39.0004C33.4412 39.0004 36.2308 41.5188 36.2308 44.6254C36.2308 45.1505 36.1511 45.6588 36.002 46.1409C35.7517 46.9505 36.2706 48 37.118 48H45.6154C46.1677 48 46.6154 47.5523 46.6154 47V35.1949C46.6154 34.8135 46.8331 34.4178 47.2145 34.4229C47.6244 34.4284 47.9698 34.668 48.3125 34.9917C48.4987 35.2122 48.6972 35.4152 48.9067 35.599C48.937 35.6303 48.9676 35.6616 48.9985 35.6929C49.0008 35.6952 49.0047 35.6946 49.0061 35.6916C49.0074 35.6889 49.011 35.6882 49.0133 35.6901C49.8201 36.3611 50.7789 36.75 51.8077 36.75C54.6753 36.75 57 33.7279 57 30C57 26.2721 54.6753 23.25 51.8077 23.25C50.7789 23.25 49.8201 23.6389 49.0133 24.3099C49.011 24.3118 49.0074 24.3111 49.0061 24.3083C49.0047 24.3055 49.0008 24.3048 48.9985 24.3071C48.9676 24.3383 48.937 24.3697 48.9067 24.401C48.6972 24.5848 48.4987 24.7878 48.3125 25.0083C47.9698 25.332 47.6244 25.5716 47.2145 25.5771C46.8331 25.5822 46.6154 25.1865 46.6154 24.8051V13C46.6154 12.4477 46.1677 12 45.6154 12H37.1179C36.2704 12 35.7514 13.0497 36.0019 13.8593C36.151 14.3416 36.2308 14.8501 36.2308 15.3754C36.2308 18.482 33.4412 21.0004 30 21.0004C26.5588 21.0004 23.7692 18.482 23.7692 15.3754C23.7692 14.8501 23.849 14.3416 23.9981 13.8593C24.2486 13.0497 23.7296 12 22.8821 12H14.3846C13.8323 12 13.3846 12.4477 13.3846 13V24.8051C13.3846 25.1865 13.1669 25.5822 12.7855 25.5771C12.3756 25.5716 12.0302 25.332 11.6875 25.0083C11.5013 24.7878 11.3028 24.5848 11.0933 24.401C11.063 24.3697 11.0324 24.3383 11.0015 24.3071C10.9992 24.3048 10.9953 24.3055 10.9939 24.3083Z" fill="url(#paint0_linear_682_7876)"/>
<defs>
<linearGradient id="paint0_linear_682_7876" x1="3" y1="47.1001" x2="57" y2="12.8999" gradientUnits="userSpaceOnUse">
<stop stop-color="#C4B9FF"/>
<stop offset="1" stop-color="#7B42FF"/>
</linearGradient>
</defs>
</svg>
