<svg width="60" height="60" viewBox="0 0 60 60" fill="none" xmlns="http://www.w3.org/2000/svg">
<g id="illust-Puzzle/illust-Puzzle-02">
<path id="Union" d="M12 13.0263C12 12.4631 12.4648 12.0131 13.0278 12.0287L21.7301 12.2704C22.6706 12.2966 23.1813 13.6498 22.7434 14.4825C22.2686 15.3852 22 16.4131 22 17.5038C22 21.0937 24.9101 24.0038 28.5 24.0038C32.0899 24.0038 35 21.0937 35 17.5038C35 16.4288 34.739 15.4147 34.2769 14.5214C33.8492 13.6945 34.3554 12.3792 35.286 12.3533L46.9059 12.0306C47.4935 12.0142 47.9684 12.5059 47.9317 13.0926L47.1285 25.9429C47.0685 26.9026 45.6125 27.3751 44.783 26.8887C43.8195 26.3238 42.6976 25.9999 41.5 25.9999C37.9101 25.9999 35 28.9101 35 32.4999C35 36.0898 37.9101 38.9999 41.5 38.9999C42.7201 38.9999 43.8617 38.6638 44.8372 38.079C45.6995 37.5621 47.3794 38.0676 47.4421 39.0711L47.9336 46.9336C47.9696 47.5093 47.5124 47.996 46.9355 47.996H13C12.4477 47.996 12 47.552 12 46.9997V13.0263Z" fill="url(#paint0_linear_2784_20088)"/>
</g>
<defs>
<linearGradient id="paint0_linear_2784_20088" x1="6.50984" y1="50.9933" x2="16.4717" y2="1.64163" gradientUnits="userSpaceOnUse">
<stop stop-color="#6F00FB"/>
<stop offset="1" stop-color="#D0ABFD"/>
</linearGradient>
</defs>
</svg>
