<svg width="24" height="24" viewBox="0 0 24 24" fill="none" xmlns="http://www.w3.org/2000/svg">
<g id="pencil-fill-24">
<path id="Vector" fill-rule="evenodd" clip-rule="evenodd" d="M14.9655 6.50284C15.3031 6.17664 15.7553 5.99608 16.2248 6.00006C16.6942 6.00405 17.1433 6.19225 17.4753 6.52414C17.8074 6.85603 17.9958 7.30505 17.9999 7.77449C18.0041 8.24393 17.8237 8.69623 17.4977 9.03397L10.068 16.4647C9.80591 16.7249 9.49602 16.9319 9.15537 17.0745L7.0611 17.942C6.92087 18.0002 6.76657 18.0154 6.6177 17.9858C6.46882 17.9562 6.33207 17.8831 6.22474 17.7758C6.11741 17.6684 6.04433 17.5317 6.01473 17.3828C5.98513 17.2339 6.00035 17.0796 6.05847 16.9394L6.92605 14.8451C7.06858 14.5045 7.27564 14.1946 7.53581 13.9325L14.9655 6.50284Z" fill="#6F00FB"/>
</g>
</svg>
