<svg width="20" height="20" viewBox="0 0 20 20" fill="none" xmlns="http://www.w3.org/2000/svg">
<path fill-rule="evenodd" clip-rule="evenodd" d="M18.75 10C18.75 14.8325 14.8325 18.75 10 18.75C5.16751 18.75 1.25 14.8325 1.25 10C1.25 5.16751 5.16751 1.25 10 1.25C14.8325 1.25 18.75 5.16751 18.75 10ZM9.16663 6.25033C9.16663 5.79009 9.53972 5.41699 9.99996 5.41699C10.4602 5.41699 10.8333 5.79009 10.8333 6.25033V10.417C10.8333 10.8772 10.4602 11.2503 9.99996 11.2503C9.53972 11.2503 9.16663 10.8772 9.16663 10.417V6.25033ZM10 12.5293C9.4247 12.5293 8.95833 12.9957 8.95833 13.571C8.95833 14.1463 9.4247 14.6126 10 14.6126C10.5753 14.6126 11.0417 14.1463 11.0417 13.571C11.0417 12.9957 10.5753 12.5293 10 12.5293Z" fill="#1B1A2A"/>
</svg>
