<svg width="32" height="32" viewBox="0 0 32 32" fill="none" xmlns="http://www.w3.org/2000/svg">
<path d="M9.71324 11.3907C9.96505 11.3907 10.2022 11.2721 10.3532 11.0707L12.6161 8.05354C12.6161 8.05353 12.6161 8.05352 12.6161 8.05352C12.6233 8.04391 12.6346 8.03828 12.6466 8.03828H19.3513C19.3633 8.03828 19.3746 8.04391 19.3818 8.05352C19.3818 8.05352 19.3818 8.05353 19.3818 8.05353L21.6447 11.0707C21.7958 11.2721 22.0329 11.3907 22.2847 11.3907H25.218C25.6726 11.3907 26.1088 11.5713 26.4303 11.8928C26.7517 12.2142 26.9323 12.6502 26.9323 13.1049V23.1621C26.9323 23.6168 26.7517 24.0529 26.4303 24.3743C26.1088 24.6958 25.6727 24.8764 25.218 24.8764H6.77991C6.3252 24.8764 5.88918 24.6958 5.56772 24.3743L5.00497 24.9371L5.56772 24.3743C5.24626 24.0529 5.06562 23.6167 5.06562 23.1621V13.1049C5.06562 12.6503 5.24624 12.2142 5.56772 11.8928L5.00204 11.3271L5.56772 11.8928C5.88922 11.5713 6.32525 11.3907 6.77991 11.3907H9.71324Z" stroke="#1B1A2A" stroke-width="1.6" stroke-linejoin="round"/>
<path d="M16.0007 21.0248C18.0527 21.0248 19.7163 19.3614 19.7163 17.3093C19.7163 15.2573 18.0527 13.5938 16.0007 13.5938C13.9487 13.5938 12.2852 15.2573 12.2852 17.3093C12.2852 19.3614 13.9487 21.0248 16.0007 21.0248Z" stroke="#1B1A2A" stroke-width="1.6"/>
</svg>
