<svg width="32" height="32" viewBox="0 0 32 32" fill="none" xmlns="http://www.w3.org/2000/svg">
<path fill-rule="evenodd" clip-rule="evenodd" d="M11.8331 20.8912C14.9977 20.8912 17.5631 18.8755 17.5631 16.3891C17.5631 13.9026 14.9977 11.8869 11.8331 11.8869C8.66845 11.8869 6.10303 13.9026 6.10303 16.3891C6.10303 17.9176 7.07245 19.2681 8.55456 20.082L7.73888 22.529L10.5427 20.7766C10.9574 20.8516 11.3894 20.8912 11.8331 20.8912Z" fill="#1B1A2A"/>
<path fill-rule="evenodd" clip-rule="evenodd" d="M15.1337 21.2295C15.903 21.4136 16.7196 21.5127 17.5655 21.5127C18.2108 21.5127 18.8389 21.455 19.442 21.346L23.52 23.8948L22.3337 20.3358C24.4898 19.1521 25.9001 17.1875 25.9001 14.9641C25.9001 11.3474 22.1686 8.41547 17.5655 8.41547C14.9261 8.41547 12.5732 9.37946 11.0461 10.8838C11.3071 10.8583 11.5707 10.8453 11.8354 10.8453C15.3273 10.8453 18.6073 13.1074 18.6073 16.3893C18.6073 18.5806 17.145 20.3173 15.1337 21.2295ZM13.5243 20.6927C15.8646 20.1264 17.5654 18.4139 17.5654 16.3893C17.5654 13.9028 15 11.8871 11.8354 11.8871C11.2173 11.8871 10.6221 11.964 10.0643 12.1063C9.53042 12.9699 9.23096 13.9395 9.23096 14.9641C9.23096 17.4286 10.9637 19.5752 13.5243 20.6927Z" fill="#1B1A2A"/>
</svg>
