<svg width="40" height="40" viewBox="0 0 40 40" fill="none" xmlns="http://www.w3.org/2000/svg">
<mask id="mask0_969_11229" style="mask-type:alpha" maskUnits="userSpaceOnUse" x="0" y="0" width="40" height="40">
<path d="M15.5747 5.4168C15.5747 4.58838 16.2463 3.91681 17.0747 3.91681H22.9037C23.7322 3.91681 24.4037 4.58838 24.4037 5.4168C24.4037 6.24523 23.7322 6.9168 22.9037 6.9168H17.0747C16.2463 6.9168 15.5747 6.24523 15.5747 5.4168Z" fill="#171719"/>
<path d="M12.7451 5.39296C12.7701 6.221 12.1192 6.91261 11.2912 6.9377C9.86318 6.98097 9.26832 7.09411 8.84456 7.31204L8.8294 7.31984C8.18628 7.6414 7.65125 8.17814 7.28827 8.87036C7.07173 9.29385 6.95919 9.88949 6.91606 11.3128C6.89097 12.1409 6.19937 12.7918 5.37132 12.7667C4.54328 12.7416 3.89236 12.05 3.91745 11.222C3.96053 9.80022 4.06328 8.58162 4.62255 7.49416L4.62711 7.48528C5.25593 6.28233 6.22863 5.26811 7.48029 4.6402C8.56579 4.08443 9.78197 3.98207 11.2003 3.93909C12.0284 3.91399 12.72 4.56491 12.7451 5.39296Z" fill="#171719"/>
<path d="M27.2334 5.39296C27.2585 4.56491 27.9501 3.91399 28.7782 3.93909C30.1965 3.98207 31.4127 4.08443 32.4982 4.6402C33.7498 5.26811 34.7225 6.28234 35.3513 7.4853L35.356 7.49414C35.9152 8.58161 36.0179 9.80022 36.061 11.222C36.0861 12.05 35.4352 12.7416 34.6072 12.7667C33.7791 12.7918 33.0875 12.1409 33.0624 11.3128C33.0193 9.88949 32.9067 9.29386 32.6902 8.87037C32.3272 8.17815 31.7922 7.64131 31.1491 7.31975L31.1339 7.31213C30.7101 7.09419 30.1153 6.98097 28.6873 6.9377C27.8593 6.91261 27.2083 6.221 27.2334 5.39296Z" fill="#171719"/>
<path d="M5.41676 15.5748C6.24518 15.5748 6.91675 16.2464 6.91675 17.0748V22.9038C6.91675 23.7322 6.24518 24.4038 5.41676 24.4038C4.58833 24.4038 3.91676 23.7322 3.91676 22.9038V17.0748C3.91676 16.2464 4.58833 15.5748 5.41676 15.5748Z" fill="#171719"/>
<path d="M34.5617 15.5748C35.3901 15.5748 36.0617 16.2464 36.0617 17.0748V22.9038C36.0617 23.7322 35.3901 24.4038 34.5617 24.4038C33.7333 24.4038 33.0617 23.7322 33.0617 22.9038V17.0748C33.0617 16.2464 33.7333 15.5748 34.5617 15.5748Z" fill="#171719"/>
<path d="M34.6287 27.2335C35.4568 27.2586 36.1077 27.9502 36.0826 28.7782C36.0395 30.1999 35.9368 31.4185 35.3775 32.506L35.3729 32.5149C34.7441 33.7179 33.7713 34.7322 32.5195 35.3601C31.4341 35.9157 30.218 36.0181 28.7998 36.0611C27.9717 36.0862 27.2801 35.4352 27.255 34.6072C27.2299 33.7792 27.8808 33.0876 28.7089 33.0625C30.1369 33.0192 30.7317 32.906 31.1555 32.6881L31.1707 32.6803C31.8138 32.3588 32.3488 31.822 32.7118 31.1298C32.9283 30.7063 33.0409 30.1107 33.084 28.6873C33.1091 27.8593 33.8007 27.2084 34.6287 27.2335Z" fill="#171719"/>
<path d="M5.37132 27.2551C6.19937 27.23 6.89097 27.8809 6.91606 28.7089C6.95933 30.1369 7.07247 30.7318 7.2904 31.1556L7.2982 31.1707C7.61976 31.8138 8.15651 32.3489 8.84873 32.7118C9.27223 32.9284 9.86785 33.0409 11.2912 33.084C12.1192 33.1091 12.7701 33.8007 12.7451 34.6288C12.72 35.4568 12.0284 36.1078 11.2003 36.0827C9.77858 36.0396 8.55999 35.9368 7.47252 35.3776L7.46366 35.373C6.2607 34.7441 5.24647 33.7715 4.61856 32.5198C4.06279 31.4343 3.96043 30.2181 3.91745 28.7998C3.89236 27.9718 4.54328 27.2801 5.37132 27.2551Z" fill="#171719"/>
<path d="M15.5747 34.5618C15.5747 33.7333 16.2463 33.0618 17.0747 33.0618H22.9037C23.7322 33.0618 24.4037 33.7333 24.4037 34.5618C24.4037 35.3902 23.7322 36.0618 22.9037 36.0618H17.0747C16.2463 36.0618 15.5747 35.3902 15.5747 34.5618Z" fill="#171719"/>
</mask>
<g mask="url(#mask0_969_11229)">
<rect width="39.9998" height="39.9998" fill="#1B1A2A"/>
</g>
</svg>
