<svg width="20" height="20" viewBox="0 0 20 20" fill="none" xmlns="http://www.w3.org/2000/svg">
<path d="M12.0543 4.98752L12.0543 4.98746L12.047 4.99474L5.85559 11.1859L5.85558 11.1859L5.85406 11.1874C5.58276 11.4607 5.36684 11.7838 5.21821 12.139L5.2182 12.139L5.21739 12.141L4.49444 13.8861C4.49443 13.8861 4.49442 13.8861 4.49441 13.8861C4.40056 14.1126 4.37599 14.3618 4.42379 14.6023C4.4716 14.8427 4.58966 15.0636 4.76303 15.237C4.9364 15.4104 5.15729 15.5284 5.39775 15.5762C5.63819 15.624 5.8874 15.5994 6.11387 15.5056C6.1139 15.5056 6.11393 15.5056 6.11396 15.5056L7.8591 14.7826L7.86105 14.7818C8.21628 14.6332 8.53943 14.4173 8.8127 14.146L8.81425 14.1445L15.0057 7.95245L15.0057 7.95251L15.013 7.94495C15.394 7.55033 15.6048 7.02186 15.5999 6.47335C15.595 5.92484 15.3749 5.40019 14.987 5.01241C14.599 4.62463 14.0743 4.40473 13.5257 4.40008C12.9772 4.39542 12.4488 4.60638 12.0543 4.98752Z" stroke="#1B1A2A" stroke-width="1.2"/>
</svg>
