<svg width="20" height="20" viewBox="0 0 20 20" fill="none" xmlns="http://www.w3.org/2000/svg">
<mask id="mask0_502_7070" style="mask-type:alpha" maskUnits="userSpaceOnUse" x="0" y="0" width="20" height="20">
<path d="M7.7875 2.708C7.7875 2.29379 8.12328 1.958 8.53749 1.958H11.452C11.8662 1.958 12.202 2.29379 12.202 2.708C12.202 3.12221 11.8662 3.45799 11.452 3.45799H8.53749C8.12328 3.45799 7.7875 3.12221 7.7875 2.708Z" fill="#171719"/>
<path d="M6.37265 2.69607C6.3852 3.1101 6.05974 3.4559 5.64571 3.46844C4.93171 3.49008 4.63428 3.54665 4.4224 3.65562L4.41482 3.65951C4.09326 3.82029 3.82575 4.08867 3.64426 4.43477C3.53599 4.64652 3.47972 4.94434 3.45815 5.656C3.44561 6.07003 3.09981 6.39549 2.68578 6.38294C2.27176 6.37039 1.9463 6.02459 1.95885 5.61057C1.98039 4.89971 2.03176 4.29041 2.3114 3.74667L2.31368 3.74224C2.62809 3.14076 3.11444 2.63365 3.74027 2.3197C4.28302 2.04181 4.89111 1.99063 5.60028 1.96914C6.0143 1.95659 6.3601 2.28205 6.37265 2.69607Z" fill="#171719"/>
<path d="M13.6168 2.69607C13.6294 2.28205 13.9752 1.95659 14.3892 1.96914C15.0984 1.99063 15.7065 2.04181 16.2492 2.31969C16.875 2.63365 17.3614 3.14077 17.6758 3.74225L17.6781 3.74667C17.9577 4.2904 18.0091 4.89971 18.0306 5.61057C18.0432 6.02459 17.7177 6.37039 17.3037 6.38294C16.8897 6.39549 16.5439 6.07003 16.5313 5.656C16.5098 4.94434 16.4535 4.64653 16.3452 4.43478C16.1637 4.08867 15.8962 3.82025 15.5747 3.65947L15.5671 3.65566C15.3552 3.54669 15.0578 3.49008 14.3438 3.46844C13.9297 3.4559 13.6043 3.1101 13.6168 2.69607Z" fill="#171719"/>
<path d="M2.7085 7.78699C3.12271 7.78699 3.4585 8.12278 3.4585 8.53699V11.4515C3.4585 11.8657 3.12271 12.2015 2.7085 12.2015C2.29429 12.2015 1.9585 11.8657 1.9585 11.4515V8.53699C1.9585 8.12278 2.29429 7.78699 2.7085 7.78699Z" fill="#171719"/>
<path d="M17.281 7.78699C17.6952 7.78699 18.031 8.12278 18.031 8.53699V11.4515C18.031 11.8657 17.6952 12.2015 17.281 12.2015C16.8668 12.2015 16.531 11.8657 16.531 11.4515V8.53699C16.531 8.12278 16.8668 7.78699 17.281 7.78699Z" fill="#171719"/>
<path d="M17.3145 13.6163C17.7285 13.6289 18.054 13.9747 18.0414 14.3887C18.0199 15.0996 17.9685 15.7089 17.6889 16.2526L17.6866 16.257C17.3721 16.8585 16.8858 17.3657 16.2599 17.6796C15.7172 17.9575 15.1091 18.0086 14.4 18.0301C13.986 18.0427 13.6402 17.7172 13.6276 17.3032C13.6151 16.8892 13.9405 16.5434 14.3546 16.5308C15.0686 16.5092 15.366 16.4526 15.5779 16.3437L15.5855 16.3398C15.907 16.179 16.1745 15.9106 16.356 15.5645C16.4643 15.3527 16.5206 15.0549 16.5421 14.3433C16.5547 13.9292 16.9005 13.6038 17.3145 13.6163Z" fill="#171719"/>
<path d="M2.68578 13.6271C3.09981 13.6146 3.44561 13.94 3.45815 14.3541C3.47979 15.0681 3.53636 15.3655 3.64532 15.5774L3.64922 15.585C3.81 15.9065 4.07838 16.174 4.42449 16.3555C4.63623 16.4638 4.93405 16.5201 5.64571 16.5416C6.05974 16.5542 6.3852 16.9 6.37265 17.314C6.3601 17.728 6.0143 18.0535 5.60028 18.0409C4.88941 18.0194 4.28012 17.968 3.73638 17.6884L3.73195 17.6861C3.13047 17.3717 2.62336 16.8853 2.3094 16.2595C2.03152 15.7168 1.98034 15.1087 1.95885 14.3995C1.9463 13.9855 2.27176 13.6397 2.68578 13.6271Z" fill="#171719"/>
<path d="M7.7875 17.2805C7.7875 16.8663 8.12328 16.5305 8.53749 16.5305H11.452C11.8662 16.5305 12.202 16.8663 12.202 17.2805C12.202 17.6947 11.8662 18.0305 11.452 18.0305H8.53749C8.12328 18.0305 7.7875 17.6947 7.7875 17.2805Z" fill="#171719"/>
</mask>
<g mask="url(#mask0_502_7070)">
<rect width="19.9999" height="19.9999" fill="#1B1A2A"/>
</g>
</svg>
