<svg width="20" height="20" viewBox="0 0 20 20" fill="none" xmlns="http://www.w3.org/2000/svg">
<rect width="20" height="20" rx="10" fill="#6F00FB"/>
<mask id="mask0_502_10049" style="mask-type:alpha" maskUnits="userSpaceOnUse" x="4" y="4" width="12" height="12">
<rect x="4" y="4" width="12" height="12" fill="#D9D9D9"/>
</mask>
<g mask="url(#mask0_502_10049)">
<path d="M10.3019 14.0922C9.98804 14.3744 9.51196 14.3744 9.19813 14.0922C8.36929 13.3403 7.68388 12.6942 7.14188 12.1539C6.59987 11.6135 6.17038 11.1325 5.85338 10.711C5.53638 10.2896 5.31492 9.90512 5.189 9.55762C5.063 9.21021 5 8.85767 5 8.5C5 7.79042 5.23925 7.19633 5.71775 6.71775C6.19633 6.23925 6.79042 6 7.5 6C7.9365 6 8.349 6.10208 8.7375 6.30625C9.126 6.51042 9.4635 6.80321 9.75 7.18463C10.0365 6.80321 10.374 6.51042 10.7625 6.30625C11.151 6.10208 11.5635 6 12 6C12.7096 6 13.3037 6.23925 13.7823 6.71775C14.2608 7.19633 14.5 7.79042 14.5 8.5C14.5 8.85767 14.437 9.21021 14.311 9.55762C14.1851 9.90512 13.9636 10.2896 13.6466 10.711C13.3296 11.1325 12.9009 11.6135 12.3605 12.1539C11.8202 12.6942 11.134 13.3403 10.3019 14.0922Z" fill="white"/>
</g>
</svg>
