<svg width="20" height="20" viewBox="0 0 20 20" fill="none" xmlns="http://www.w3.org/2000/svg">
<path d="M17.9059 14.2609C17.6682 16.3711 16.5635 17.1547 15.6784 17.441C15.2432 17.5816 14.7498 17.6381 14.2132 17.6129C13.2833 17.5691 12.2232 17.2802 11.1079 16.7563C9.5009 16.0013 7.88842 14.8098 6.68411 13.4856C5.47967 12.1623 4.44382 10.4452 3.84293 8.77456C3.1857 6.94603 3.09585 5.307 3.59021 4.15992C3.95837 3.30568 4.84296 2.28031 6.96549 2.24088C7.07215 2.23834 7.17087 2.29751 7.22095 2.39214L9.15126 6.06481C9.21135 6.17836 9.18628 6.31895 9.09163 6.40509L7.23721 8.09284C7.6046 9.16368 8.29434 10.3009 9.14944 11.2403C10.0045 12.1796 11.0728 12.974 12.1035 13.4411L13.9588 11.7534C14.0543 11.6664 14.1958 11.6555 14.3032 11.7259L17.7786 13.9924C17.8681 14.0511 17.9169 14.1549 17.9052 14.2609L17.9059 14.2609Z" fill="#1B1A2A"/>
</svg>
