<svg width="32" height="32" viewBox="0 0 32 32" fill="none" xmlns="http://www.w3.org/2000/svg">
<path fill-rule="evenodd" clip-rule="evenodd" d="M10.918 7.07581C9.89928 7.07581 8.92226 7.48039 8.20177 8.2006C7.48128 8.92081 7.07632 9.89768 7.07593 10.9164V21.162C7.07593 22.1809 7.48072 23.1582 8.20125 23.8787C8.92178 24.5993 9.89903 25.004 10.918 25.004H21.1636C22.1823 25.0037 23.1592 24.5987 23.8794 23.8782C24.5996 23.1577 25.0042 22.1807 25.0042 21.162V10.9164C25.0038 9.89794 24.599 8.92129 23.8788 8.20112C23.1587 7.48096 22.182 7.0762 21.1636 7.07581H10.918ZM22.2687 10.9223C22.2687 11.2158 22.1521 11.4973 21.9446 11.7048C21.737 11.9123 21.4556 12.0289 21.1621 12.0289C20.8686 12.0289 20.5871 11.9123 20.3796 11.7048C20.1721 11.4973 20.0555 11.2158 20.0555 10.9223C20.0555 10.6288 20.1721 10.3474 20.3796 10.1398C20.5871 9.93231 20.8686 9.81572 21.1621 9.81572C21.4556 9.81572 21.737 9.93231 21.9446 10.1398C22.1521 10.3474 22.2687 10.6288 22.2687 10.9223ZM16.0423 12.9702C15.2283 12.9702 14.4477 13.2936 13.8722 13.8691C13.2967 14.4447 12.9733 15.2253 12.9733 16.0392C12.9733 16.8531 13.2967 17.6337 13.8722 18.2093C14.4477 18.7848 15.2283 19.1081 16.0423 19.1081C16.8562 19.1081 17.6368 18.7848 18.2123 18.2093C18.7879 17.6337 19.1112 16.8531 19.1112 16.0392C19.1112 15.2253 18.7879 14.4447 18.2123 13.8691C17.6368 13.2936 16.8562 12.9702 16.0423 12.9702ZM11.4964 16.0392C11.4964 14.8339 11.9752 13.6781 12.8274 12.8258C13.6796 11.9736 14.8355 11.4948 16.0408 11.4948C17.246 11.4948 18.4019 11.9736 19.2542 12.8258C20.1064 13.6781 20.5852 14.8339 20.5852 16.0392C20.5852 17.2444 20.1064 18.4003 19.2542 19.2526C18.4019 20.1048 17.246 20.5836 16.0408 20.5836C14.8355 20.5836 13.6796 20.1048 12.8274 19.2526C11.9752 18.4003 11.4964 17.2444 11.4964 16.0392Z" fill="#1B1A2A"/>
</svg>
