<svg width="60" height="60" viewBox="0 0 60 60" fill="none" xmlns="http://www.w3.org/2000/svg">
<g id="illust-Puzzle/illust-Puzzle-09">
<path id="Union" d="M18.9756 26C18.9756 29.866 15.8416 33 11.9756 33C11.1045 33 10.2705 32.8409 9.50116 32.5501C8.76422 32.2716 7.84479 32.7218 7.79288 33.5079C7.55976 37.0377 7.2652 40.2732 7.10918 41.8994C7.05255 42.4896 7.5163 43 8.1092 43H21.1C19.8035 44.2705 18.999 46.0413 18.999 48C18.999 51.866 22.133 55 25.999 55C29.865 55 32.999 51.866 32.999 48C32.999 46.0413 32.1946 44.2705 30.898 43H42.0997C42.6926 43 43.1564 42.4896 43.0998 41.8994C42.8762 39.5692 42.3682 33.935 42.1641 28.865C43.4176 30.7544 45.564 32 48.0012 32C51.8672 32 55.0012 28.866 55.0012 25C55.0012 21.134 51.8672 18 48.0012 18C45.564 18 43.4176 19.2456 42.1641 21.135C42.3682 16.065 42.8762 10.4308 43.0998 8.10062C43.1564 7.51043 42.6926 7 42.0997 7H33.3473C32.4515 7 31.9298 8.17344 32.3165 8.98145C32.754 9.89541 32.999 10.9191 32.999 12C32.999 15.866 29.865 19 25.999 19C22.133 19 18.999 15.866 18.999 12C18.999 10.9191 19.244 9.89541 19.6815 8.98145C20.0683 8.17344 19.5466 7 18.6508 7H8.10921C7.5163 7 7.05255 7.51043 7.10918 8.10062C7.29351 10.0219 7.6712 14.1892 7.91248 18.4344C7.95702 19.2181 8.86514 19.678 9.60363 19.4121C10.3443 19.1454 11.143 19 11.9756 19C15.8416 19 18.9756 22.134 18.9756 26Z" fill="url(#paint0_linear_2784_20092)"/>
</g>
<defs>
<linearGradient id="paint0_linear_2784_20092" x1="-0.213066" y1="59" x2="13.0968" y2="-6.85485" gradientUnits="userSpaceOnUse">
<stop stop-color="#6F00FB"/>
<stop offset="1" stop-color="#D0ABFD"/>
</linearGradient>
</defs>
</svg>
