<svg width="32" height="32" viewBox="0 0 32 32" fill="none" xmlns="http://www.w3.org/2000/svg">
<path d="M12.6377 7.20853C12.6377 6.17271 13.52 5.33301 14.6084 5.33301H17.3918C18.4802 5.33301 19.3626 6.17271 19.3626 7.20854C19.3626 8.65232 21.0049 9.55467 22.3187 8.83278C23.2613 8.31486 24.4666 8.6222 25.0108 9.51927L26.4025 11.8133C26.9467 12.7103 26.6237 13.8574 25.6811 14.3753C24.3673 15.0972 24.3673 16.902 25.6811 17.6239C26.6237 18.1418 26.9467 19.2889 26.4025 20.1859L25.0108 22.4799C24.4666 23.377 23.2613 23.6844 22.3187 23.1664C21.0049 22.4445 19.3626 23.3469 19.3626 24.7907C19.3626 25.8266 18.4802 26.6663 17.3918 26.6663H14.6085C13.5201 26.6663 12.6377 25.8266 12.6377 24.7907C12.6377 23.347 10.9954 22.4445 9.68161 23.1664C8.73902 23.6844 7.53374 23.377 6.98953 22.48L5.59786 20.1859C5.05365 19.2889 5.37661 18.1418 6.3192 17.6239C7.63303 16.902 7.63303 15.0972 6.3192 14.3753C5.37661 13.8574 5.05365 12.7103 5.59786 11.8133L6.98953 9.51925C7.53374 8.62219 8.73903 8.31485 9.68162 8.83276C10.9954 9.55465 12.6377 8.6523 12.6377 7.20853Z" stroke="#1B1A2A" stroke-width="1.6"/>
<path d="M20.4834 15.9997C20.4834 18.3561 18.4762 20.2663 16.0001 20.2663C13.5241 20.2663 11.5169 18.3561 11.5169 15.9997C11.5169 13.6433 13.5241 11.733 16.0001 11.733C18.4762 11.733 20.4834 13.6433 20.4834 15.9997Z" stroke="#1B1A2A" stroke-width="1.6"/>
</svg>
