<svg width="60" height="60" viewBox="0 0 60 60" fill="none" xmlns="http://www.w3.org/2000/svg">
<g id="illust-Puzzle/illust-Puzzle-08">
<path id="Union" d="M14.8487 41.0488C13.5907 42.2572 11.8821 43 10 43C6.13401 43 3 39.866 3 36C3 32.134 6.13401 29 10 29C11.8821 29 13.5907 29.7428 14.8487 30.9512C14.6483 27.0751 14.2994 23.1307 14.1178 21.2062C14.0586 20.5797 14.5805 20.052 15.2077 20.1046C17.3205 20.2819 21.8652 20.6382 26.0831 20.8024C24.2229 19.5442 23 17.4149 23 15C23 11.134 26.134 8 30 8C33.866 8 37 11.134 37 15C37 17.4149 35.7771 19.5442 33.9169 20.8024C38.1349 20.6382 42.6799 20.2819 44.7927 20.1046C45.4199 20.052 45.9418 20.5797 45.8827 21.2062C45.701 23.1306 45.3521 27.0748 45.1517 30.9508C46.4097 29.7426 48.1181 29 50 29C53.866 29 57 32.134 57 36C57 39.866 53.866 43 50 43C48.1181 43 46.4097 42.2574 45.1517 41.0492C45.356 44.9998 45.7145 49.0211 45.893 50.9025C45.9489 51.4925 45.485 52 44.8923 52H15.1081C14.5154 52 14.0515 51.4925 14.1075 50.9025C14.286 49.021 14.6445 44.9995 14.8487 41.0488Z" fill="url(#paint0_linear_2784_20099)"/>
</g>
<defs>
<linearGradient id="paint0_linear_2784_20099" x1="-5.25" y1="55.6667" x2="4.80364" y2="-5.51406" gradientUnits="userSpaceOnUse">
<stop stop-color="#6F00FB"/>
<stop offset="1" stop-color="#D0ABFD"/>
</linearGradient>
</defs>
</svg>
