<svg width="60" height="60" viewBox="0 0 60 60" fill="none" xmlns="http://www.w3.org/2000/svg">
<g id="illust-Puzzle/illust-Puzzle-10">
<path id="Union" d="M18.8843 29.9599C18.8843 33.8037 15.7503 36.9197 11.8843 36.9197C11.0601 36.9197 10.2691 36.7781 9.53475 36.518C8.80184 36.2584 7.90795 36.713 7.86028 37.4891C7.61976 41.4047 7.28255 45.1178 7.11162 46.8994C7.05499 47.4896 7.51874 48 8.11164 48H18.6552C19.5524 48 20.0742 46.8225 19.6856 46.0138C19.247 45.1011 19.0015 44.079 19.0015 43C19.0015 39.134 22.1535 36 26.0418 36C29.9301 36 33.0822 39.134 33.0822 43C33.0822 44.079 32.8367 45.1011 32.3981 46.0138C32.0095 46.8225 32.5312 48 33.4284 48H42.1022C42.6951 48 43.1588 47.4896 43.1022 46.8994C42.8787 44.5697 42.3709 38.9376 42.1667 33.8686C43.4205 35.7559 45.5657 37 48.0015 37C51.8675 37 55.0015 33.866 55.0015 30C55.0015 26.134 51.8675 23 48.0015 23C45.5657 23 43.4205 24.2441 42.1667 26.1314C42.3709 21.0624 42.8787 15.4303 43.1022 13.1006C43.1588 12.5104 42.6951 12 42.1022 12H33.3633C32.4673 12 31.9454 13.1745 32.3309 13.9834C32.7609 14.8859 33.0015 15.8949 33.0015 16.9599C33.0015 20.8037 29.8675 23.9197 26.0015 23.9197C22.1355 23.9197 19.0015 20.8037 19.0015 16.9599C19.0015 15.8949 19.242 14.8859 19.6721 13.9834C20.0575 13.1745 19.5357 12 18.6396 12H8.11165C7.51874 12 7.05499 12.5104 7.11162 13.1006C7.28142 14.8704 7.61529 18.546 7.85547 22.4329C7.90344 23.209 8.79777 23.6633 9.53063 23.4032C10.2662 23.1422 11.0585 23 11.8843 23C15.7503 23 18.8843 26.116 18.8843 29.9599Z" fill="url(#paint0_linear_2784_20094)"/>
</g>
<defs>
<linearGradient id="paint0_linear_2784_20094" x1="-0.210287" y1="51" x2="7.40763" y2="0.746126" gradientUnits="userSpaceOnUse">
<stop stop-color="#6F00FB"/>
<stop offset="1" stop-color="#D0ABFD"/>
</linearGradient>
</defs>
</svg>
