<svg width="20" height="20" viewBox="0 0 20 20" fill="none" xmlns="http://www.w3.org/2000/svg">
<path fill-rule="evenodd" clip-rule="evenodd" d="M10.7609 16.5716L11.1403 15.9304C11.4343 15.4334 11.5813 15.1842 11.8179 15.047C12.0545 14.9091 12.352 14.9042 12.947 14.8937C13.8262 14.879 14.3771 14.8251 14.8391 14.6333C15.2637 14.4574 15.6496 14.1996 15.9746 13.8746C16.2996 13.5496 16.5574 13.1637 16.7333 12.7391C17 12.0965 17 11.281 17 9.65V8.95C17 6.6589 17 5.513 16.4841 4.6716C16.1957 4.20064 15.7999 3.80461 15.3291 3.5159C14.487 3 13.3411 3 11.05 3H8.95C6.6589 3 5.513 3 4.6716 3.5159C4.20064 3.80433 3.80461 4.20011 3.5159 4.6709C3 5.513 3 6.6596 3 8.95V9.65C3 11.281 3 12.0965 3.266 12.7391C3.44197 13.1638 3.69989 13.5497 4.02502 13.8747C4.35015 14.1997 4.73613 14.4575 5.1609 14.6333C5.6229 14.8251 6.1738 14.8783 7.053 14.8937C7.648 14.9042 7.9455 14.9091 8.1821 15.047C8.418 15.1842 8.5657 15.4327 8.8597 15.9304L9.2391 16.5716C9.5772 17.1428 10.4221 17.1428 10.7609 16.5716Z" stroke="#484B4D" stroke-width="2.38"/>
</svg>
