<svg width="20" height="20" viewBox="0 0 20 20" fill="none" xmlns="http://www.w3.org/2000/svg">
<g clip-path="url(#clip0_669_8562)">
<path d="M16.5334 14.4482C16.2795 15.0347 15.979 15.5745 15.6309 16.0709C15.1563 16.7475 14.7677 17.2159 14.4682 17.476C14.004 17.9029 13.5066 18.1216 12.974 18.134C12.5916 18.134 12.1305 18.0252 11.5937 17.8045C11.0552 17.5848 10.5603 17.476 10.1078 17.476C9.6332 17.476 9.1242 17.5848 8.57977 17.8045C8.03451 18.0252 7.59525 18.1402 7.25941 18.1516C6.74866 18.1734 6.23956 17.9485 5.73139 17.476C5.40706 17.1931 5.00137 16.7082 4.51538 16.0211C3.99396 15.2875 3.56527 14.4368 3.22943 13.4669C2.86976 12.4192 2.68945 11.4048 2.68945 10.4226C2.68945 9.29761 2.93255 8.32729 3.41947 7.51416C3.80215 6.86103 4.31125 6.34582 4.94842 5.9676C5.5856 5.58938 6.27407 5.39664 7.01549 5.38431C7.42117 5.38431 7.95317 5.50979 8.61428 5.75641C9.27352 6.00386 9.69682 6.12935 9.88241 6.12935C10.0212 6.12935 10.4914 5.98262 11.2886 5.6901C12.0424 5.41881 12.6787 5.30649 13.1999 5.35073C14.6123 5.46472 15.6734 6.02148 16.379 7.02455C15.1159 7.7899 14.491 8.86187 14.5035 10.237C14.5149 11.3082 14.9034 12.1996 15.6671 12.9073C16.0132 13.2358 16.3997 13.4897 16.8298 13.67C16.7365 13.9404 16.6381 14.1995 16.5334 14.4482ZM13.2942 1.70157C13.2942 2.54112 12.9875 3.32502 12.3761 4.05058C11.6383 4.91313 10.7459 5.41156 9.77816 5.33291C9.76583 5.23219 9.75868 5.12618 9.75868 5.01479C9.75868 4.20881 10.1095 3.34626 10.7326 2.64101C11.0437 2.28392 11.4393 1.98701 11.9191 1.75016C12.3978 1.51685 12.8507 1.38782 13.2766 1.36572C13.289 1.47796 13.2942 1.5902 13.2942 1.70155V1.70157Z" fill="white"/>
</g>
<defs>
<clipPath id="clip0_669_8562">
<rect width="17.5172" height="17.5172" fill="white" transform="translate(1 1.00049)"/>
</clipPath>
</defs>
</svg>
