<svg width="20" height="20" viewBox="0 0 20 20" fill="none" xmlns="http://www.w3.org/2000/svg">
<path fill-rule="evenodd" clip-rule="evenodd" d="M19 10C19 5.02944 14.9706 1 10 1C5.02944 0.999999 1 5.02944 1 10C0.999999 14.9706 5.02944 19 10 19C14.9706 19 19 14.9706 19 10ZM13.46 13.46C13.7139 13.2062 13.7139 12.7946 13.46 12.5408L10.9192 10L13.46 7.45923C13.7139 7.20539 13.7139 6.79383 13.46 6.53999C13.2062 6.28615 12.7946 6.28615 12.5408 6.53999L10 9.08076L7.46001 6.54077C7.20617 6.28693 6.79461 6.28693 6.54077 6.54077C6.28693 6.79461 6.28693 7.20617 6.54077 7.46001L9.08076 10L6.54077 12.54C6.28693 12.7938 6.28693 13.2054 6.54077 13.4592C6.79461 13.7131 7.20617 13.7131 7.46001 13.4592L10 10.9192L12.5408 13.46C12.7946 13.7139 13.2062 13.7139 13.46 13.46Z" fill="#1B1A2A"/>
</svg>
