<svg width="48" height="48" viewBox="0 0 48 48" fill="none" xmlns="http://www.w3.org/2000/svg">
<rect x="1" y="1" width="46" height="46" rx="23" stroke="#909599" stroke-width="2"/>
<path d="M16.7049 26.9342C16.0992 27.5169 15.2766 27.875 14.3704 27.875C12.509 27.875 11 26.364 11 24.5C11 22.636 12.509 21.125 14.3704 21.125C15.2766 21.125 16.0992 21.4831 16.7049 22.0658C16.6085 20.1969 16.4405 18.2951 16.353 17.3673C16.3245 17.0652 16.5758 16.8108 16.8778 16.8362C17.895 16.9216 20.0832 17.0934 22.1141 17.1726C21.2184 16.5659 20.6296 15.5393 20.6296 14.375C20.6296 12.511 22.1386 11 24 11C25.8614 11 27.3704 12.511 27.3704 14.375C27.3704 15.5393 26.7816 16.566 25.8859 17.1726C27.9168 17.0934 30.1051 16.9216 31.1224 16.8362C31.4244 16.8108 31.6757 17.0652 31.6472 17.3673C31.5597 18.2951 31.3918 20.1968 31.2953 22.0656C31.901 21.483 32.7235 21.125 33.6296 21.125C35.491 21.125 37 22.636 37 24.5C37 26.364 35.491 27.875 33.6296 27.875C32.7235 27.875 31.901 27.517 31.2953 26.9344C31.3936 28.8392 31.5662 30.778 31.6522 31.6851C31.6791 31.9696 31.4557 32.2143 31.1704 32.2143H26.3588C26.983 32.8269 27.3704 33.6806 27.3704 34.625C27.3704 36.489 25.8614 38 24 38C22.1386 38 20.6296 36.489 20.6296 34.625C20.6296 33.6806 21.017 32.8269 21.6412 32.2143H16.8298C16.5445 32.2143 16.3211 31.9696 16.348 31.6851C16.434 30.778 16.6066 28.839 16.7049 26.9342Z" fill="#CBD1D9"/>
<path d="M7 7L40.9411 40.9411" stroke="#909599" stroke-width="2"/>
</svg>
